<?xml version="1.0" encoding="UTF-8" standalone="no"?>
<!-- Created with Inkscape (http://www.inkscape.org/) -->

<svg
   xmlns:dc="http://purl.org/dc/elements/1.1/"
   xmlns:cc="http://creativecommons.org/ns#"
   xmlns:rdf="http://www.w3.org/1999/02/22-rdf-syntax-ns#"
   xmlns:svg="http://www.w3.org/2000/svg"
   xmlns="http://www.w3.org/2000/svg"
   xmlns:sodipodi="http://sodipodi.sourceforge.net/DTD/sodipodi-0.dtd"
   xmlns:inkscape="http://www.inkscape.org/namespaces/inkscape"
   width="86.872162"
   height="37.124939"
   id="svg2"
   version="1.1"
   inkscape:version="0.48.5 r10040"
   sodipodi:docname="farm.svg"
   inkscape:export-filename="C:\Users\Jason\Desktop\village_images\bmp\farm.png"
   inkscape:export-xdpi="100"
   inkscape:export-ydpi="100">
  <defs
     id="defs4" />
  <sodipodi:namedview
     id="base"
     pagecolor="#ffffff"
     bordercolor="#666666"
     borderopacity="1.0"
     inkscape:pageopacity="0.0"
     inkscape:pageshadow="2"
     inkscape:zoom="1.2851562"
     inkscape:cx="206.82629"
     inkscape:cy="291.24774"
     inkscape:document-units="px"
     inkscape:current-layer="layer1"
     showgrid="false"
     fit-margin-top="0"
     fit-margin-left="0"
     fit-margin-right="0"
     fit-margin-bottom="0"
     inkscape:window-width="1920"
     inkscape:window-height="1137"
     inkscape:window-x="-8"
     inkscape:window-y="-8"
     inkscape:window-maximized="1" />
  <metadata
     id="metadata7">
    <rdf:RDF>
      <cc:Work
         rdf:about="">
        <dc:format>image/svg+xml</dc:format>
        <dc:type
           rdf:resource="http://purl.org/dc/dcmitype/StillImage" />
        <dc:title></dc:title>
      </cc:Work>
    </rdf:RDF>
  </metadata>
  <g
     inkscape:label="Layer 1"
     inkscape:groupmode="layer"
     id="layer1"
     transform="translate(-46.787696,-973.2327)">
    <rect
       style="fill:#784421;fill-opacity:1;stroke:#000000;stroke-width:0.53780156;stroke-miterlimit:4;stroke-opacity:1;stroke-dasharray:none"
       id="rect2985"
       width="84.980934"
       height="4.7070293"
       x="48.410027"
       y="1005.3817" />
    <path
       style="fill:#ffdd55;fill-opacity:1;stroke:#000000;stroke-width:0.6428504;stroke-miterlimit:4;stroke-opacity:0;stroke-dasharray:none"
       id="path3763"
       d="m 58.560051,1005.3633 c -0.255768,-0.6588 -0.463205,-1.3301 -0.731159,-1.9849 -0.155989,-0.4266 -0.287003,-0.8642 -0.50167,-1.2717 -0.230952,-0.3762 -0.308382,-0.7929 -0.356368,-1.2131 -0.09449,-0.3901 -0.183606,-0.7796 -0.332278,-1.15645 -0.221736,-0.3155 -0.362613,-0.66395 -0.535066,-1.00082 -0.156445,-0.41263 -0.33177,-0.81932 -0.53463,-1.21573 -0.197276,-0.35099 -0.342813,-0.7199 -0.514007,-1.08053 -0.153127,-0.36668 -0.301921,-0.73516 -0.441255,-1.10663 -0.107003,-0.36954 -0.269223,-0.72463 -0.451955,-1.06935 -0.255944,-0.29482 -0.400625,-0.64314 -0.575742,-0.97721 -0.13421,-0.37439 -0.383187,-0.68666 -0.649332,-0.99355 -0.303894,-0.32801 -0.534037,-0.71157 -0.917191,-0.97399 -0.345974,-0.26327 -0.666095,-0.55872 -1.06238,-0.76269 -0.470059,-0.16198 -0.966289,-0.18315 -1.444139,-0.32816 -0.666641,-0.2147 -1.369733,-0.29128 -2.072325,-0.34202 -0.110477,-0.005 -0.220953,-0.0109 -0.331433,-0.0163 0,0 1.795922,-1.14003 1.795922,-1.14003 l 0,0 c 0.111264,0.007 0.222531,0.0142 0.333799,0.0212 0.713987,0.063 1.423957,0.15965 2.102654,0.37479 0.493745,0.12647 1.022062,0.14317 1.479896,0.36553 0.390569,0.22614 0.726151,0.5154 1.078743,0.78471 0.377517,0.28979 0.632372,0.66929 0.942702,1.01236 0.276407,0.31744 0.535328,0.64385 0.675694,1.03041 0.174715,0.3344 0.321427,0.68003 0.575246,0.97636 0.1864,0.35173 0.35672,0.71333 0.464313,1.0907 0.134142,0.3673 0.286812,0.72866 0.432654,1.09186 0.173064,0.35805 0.31128,0.72854 0.51026,1.07722 0.201785,0.39672 0.379452,0.80243 0.53603,1.21485 0.174858,0.34244 0.319258,0.6952 0.543968,1.01615 0.156003,0.39195 0.2498,0.79484 0.355077,1.19983 0.0397,0.39889 0.102002,0.79549 0.322944,1.15239 0.218648,0.4132 0.353807,0.8567 0.50341,1.292 0.264053,0.6627 0.461138,1.3431 0.745631,1.9999 0,0 -1.948013,0.9328 -1.948013,0.9328 z"
       inkscape:connector-curvature="0" />
    <path
       style="fill:#ffdd55;fill-opacity:1;stroke:#000000;stroke-width:0.6428504;stroke-miterlimit:4;stroke-opacity:0;stroke-dasharray:none"
       id="path3765"
       d="m 59.733155,1006.0854 c 0.01223,-0.7559 0.007,-1.5119 0.0044,-2.2678 0.01327,-0.5351 -0.129712,-1.0595 -0.200073,-1.5891 -0.06276,-0.5161 -0.07479,-1.0354 -0.08239,-1.554 0.0085,-0.4913 -0.03214,-0.98503 0.02308,-1.47453 0.102459,-0.42681 0.179392,-0.85546 0.219479,-1.29035 0.03329,-0.468 0.0101,-0.93436 0.106075,-1.39684 0.12442,-0.43465 0.141165,-0.88357 0.216743,-1.32464 0.09222,-0.49736 0.224393,-0.98548 0.358755,-1.47475 0.09349,-0.51682 0.315235,-1.00174 0.501476,-1.49503 0.166103,-0.40305 0.383345,-0.78606 0.579147,-1.17752 0.202317,-0.35867 0.383395,-0.72195 0.633479,-1.05708 0.18969,-0.36597 0.522715,-0.62653 0.831482,-0.90974 0.368973,-0.32149 0.69881,-0.65248 0.991519,-1.03135 0.278294,-0.34596 0.536752,-0.70153 0.792761,-1.06057 0.251547,-0.2933 0.424359,-0.62831 0.74873,-0.86471 0.336736,-0.19126 0.666169,-0.38958 0.975184,-0.61482 0.05884,-0.0406 0.117671,-0.0812 0.176504,-0.12186 0,0 2.060281,-0.73011 2.060281,-0.73011 l 0,0 c -0.05811,0.0406 -0.116215,0.0812 -0.174319,0.12184 -0.323609,0.21074 -0.616069,0.45432 -0.968493,0.63038 -0.397734,0.17453 -0.516006,0.4937 -0.78822,0.78366 -0.244004,0.37126 -0.516466,0.72214 -0.791614,1.07513 -0.167095,0.20295 -0.296228,0.42887 -0.48105,0.61988 -0.220111,0.2275 -0.09838,0.0688 -0.343107,0.2707 -0.05679,0.0469 -0.104432,0.10174 -0.15665,0.15261 -0.254643,0.31826 -0.681156,0.50707 -0.841481,0.89054 -0.248013,0.33546 -0.446623,0.66451 -0.649932,1.02243 -0.17201,0.39821 -0.413587,0.76909 -0.591904,1.166 -0.174207,0.4925 -0.422321,0.96625 -0.50856,1.48065 -0.12745,0.48757 -0.276946,0.96806 -0.363256,1.46361 -0.0988,0.43853 -0.08104,0.89286 -0.211702,1.32809 -0.112982,0.45532 -0.103745,0.91063 -0.120105,1.37566 -0.03301,0.43823 -0.08921,0.87431 -0.212363,1.3009 -0.09612,0.47646 -0.01758,0.96788 -0.04049,1.44988 0.0056,0.51264 0.01377,1.02604 0.07067,1.53674 0.06742,0.5378 0.218634,1.069 0.20542,1.6117 -0.0025,0.7546 -0.0079,1.5093 0.0044,2.2639 0,0 -1.973862,0.8905 -1.973862,0.8905 z"
       inkscape:connector-curvature="0" />
    <path
       style="fill:#ffdd55;fill-opacity:1;stroke:#000000;stroke-width:0.6428504;stroke-miterlimit:4;stroke-opacity:0;stroke-dasharray:none"
       id="path3767"
       d="m 59.453383,1004.599 c 0.01219,-0.7559 0.007,-1.5119 0.0044,-2.2678 -0.0022,-0.5554 -0.0032,-1.1108 -0.0037,-1.6661 -3.42e-4,-0.4952 -3.06e-4,-0.99043 -2.98e-4,-1.48563 0.01604,-0.43725 -0.126952,-0.86125 -0.196852,-1.29141 -0.01215,-0.43199 -0.149521,-0.84396 -0.242735,-1.26469 -0.03484,-0.42343 -0.180672,-0.8263 -0.27728,-1.23966 -0.0912,-0.5 -0.10198,-1.00431 -0.190132,-1.50486 -0.08782,-0.55282 -0.206876,-1.10365 -0.38159,-1.64028 -0.160523,-0.48905 -0.322423,-0.97805 -0.4703,-1.47035 -0.124768,-0.43224 -0.268457,-0.86204 -0.415356,-1.28937 -0.172395,-0.39984 -0.341342,-0.80536 -0.531265,-1.19973 -0.164302,-0.34986 -0.319079,-0.70621 -0.521996,-1.04039 -0.168713,-0.32693 -0.472353,-0.57052 -0.681239,-0.87439 -0.279074,-0.36149 -0.471475,-0.7428 -0.83411,-1.04969 -0.350446,-0.32319 -0.781147,-0.56689 -1.086354,-0.92688 -0.136091,-0.13684 -0.247592,-0.2867 -0.383245,-0.42382 0,0 1.902487,-1.0147 1.902487,-1.0147 l 0,0 c 0.134905,0.14202 0.253252,0.29275 0.388703,0.43436 0.302467,0.34681 0.730795,0.58339 1.064148,0.90589 0.363523,0.32496 0.5881,0.70969 0.868864,1.0873 0.211835,0.30531 0.521781,0.55165 0.687179,0.88408 0.205546,0.33949 0.365615,0.70003 0.530089,1.05613 0.194476,0.39969 0.359014,0.81419 0.539985,1.2182 0.155471,0.42765 0.289617,0.86471 0.418376,1.29847 0.143473,0.49172 0.310946,0.97757 0.464978,1.46664 0.181787,0.54299 0.30635,1.10171 0.393959,1.66245 0.09172,0.49729 0.120019,0.99547 0.19252,1.49463 0.09232,0.41503 0.249785,0.81636 0.278186,1.2414 0.08989,0.42471 0.240858,0.83796 0.247373,1.27385 0.06699,0.43969 0.21713,0.87124 0.208641,1.31663 8e-6,0.49528 4e-5,0.99057 -3.02e-4,1.48586 -3.59e-4,0.55646 -0.0014,1.11296 -0.0037,1.66946 -0.0025,0.7546 -0.0079,1.5093 0.0044,2.2638 0,0 -1.973861,0.8906 -1.973861,0.8906 z"
       inkscape:connector-curvature="0" />
    <path
       style="fill:#ffdd55;fill-opacity:1;stroke:#000000;stroke-width:0.6428504;stroke-miterlimit:4;stroke-opacity:0;stroke-dasharray:none"
       id="path3769"
       d="m 75.175957,1005.0728 c 0.154659,-0.7401 0.526519,-1.4182 0.800431,-2.1249 0.248796,-0.4926 0.364799,-1.0179 0.511601,-1.537 0.1773,-0.4439 0.3537,-0.8839 0.506747,-1.3354 0.199894,-0.54416 0.344456,-1.10157 0.599311,-1.62843 0.298476,-0.61085 0.570033,-1.22739 0.973131,-1.79117 0.359014,-0.47699 0.744902,-0.93561 1.083205,-1.4251 0.338897,-0.51278 0.682181,-1.02052 0.978047,-1.55431 0.196585,-0.44661 0.444436,-0.87316 0.696027,-1.29688 0.213348,-0.40105 0.487256,-0.77139 0.801196,-1.11553 0.338408,-0.36321 0.725144,-0.6859 1.120965,-0.99886 1.012797,-0.8389 2.267516,-1.37262 3.459745,-1.98289 0.226382,-0.11623 0.32184,-0.1727 0.561087,-0.26608 0.471949,-0.18421 0.09672,-0.0212 0.572319,-0.17279 0.510264,-0.16264 2.74647,-1.34425 -1.460438,0.75562 1.210386,-0.69291 -3.629763,2.0741 2.275261,-1.17859 0.562169,-0.30967 -1.147133,0.58571 -1.725184,0.87153 -0.06038,0.0299 0.111703,-0.0726 0.171543,-0.10332 0.693582,-0.35578 1.39223,-0.70377 2.088218,-1.05585 0.576458,-0.29161 -1.153081,0.58296 -1.729624,0.87445 6.934378,-3.52019 -1.22621,0.608 0.501418,-0.294 0.689354,-0.35991 1.378363,-0.72067 2.078046,-1.06459 0.274422,-0.0782 0.144904,-0.0281 0.38954,-0.1484 0.336535,-0.10452 0.636885,-0.26839 0.972812,-0.37436 0,0 -1.745071,1.21485 -1.745071,1.21485 l 0,0 c -0.322034,0.12643 -0.639822,0.26123 -0.962068,0.38722 -0.729613,0.28482 -1.680531,0.80182 1.333231,-0.73568 0.05751,-0.0293 -0.108463,0.0679 -0.165261,0.0983 -0.682803,0.36542 -1.39839,0.68558 -2.053338,1.089 -0.544443,0.33535 1.147267,-0.58949 1.720902,-0.88423 -6.914938,3.5563 1.200782,-0.63996 -0.534933,0.27506 -0.688124,0.36276 -1.392741,0.70181 -2.066306,1.0854 -0.490176,0.27915 2.507496,-1.34329 1.518476,-0.76743 -0.701683,0.35785 -1.39676,0.72605 -2.105045,1.07355 -0.428839,0.2104 -0.96709,0.25887 -1.355275,0.55093 3.339251,-1.72335 0.953194,-0.56146 0.308634,0.013 -0.392298,0.3094 -0.794955,0.61267 -1.123655,0.97612 -0.346103,0.30702 -0.612129,0.68691 -0.826732,1.07492 -0.261057,0.41655 -0.510774,0.84393 -0.702941,1.28871 -0.284191,0.54475 -0.633253,1.05369 -0.9722,1.57153 -0.325087,0.50048 -0.707853,0.96308 -1.080778,1.43443 -0.425344,0.54689 -0.705472,1.14954 -0.986039,1.76298 -0.281293,0.51266 -0.411257,1.0645 -0.605502,1.60564 -0.171299,0.44247 -0.288168,0.90005 -0.507855,1.32815 -0.183239,0.5119 -0.23225,1.0622 -0.514942,1.5489 -0.261758,0.7057 -0.667453,1.3684 -0.801437,2.1083 0,0 -1.997269,0.8472 -1.997269,0.8472 z"
       inkscape:connector-curvature="0" />
    <path
       style="fill:#ffdd55;fill-opacity:1;stroke:#000000;stroke-width:0.6428504;stroke-miterlimit:4;stroke-opacity:0;stroke-dasharray:none"
       id="path3771"
       d="m 77.86446,1005.6111 c -0.184825,-0.7412 -0.415065,-1.4741 -0.70402,-2.1887 -0.140128,-0.4627 -0.363584,-0.9001 -0.502752,-1.3626 -0.130335,-0.4424 -0.09177,-0.9032 -0.165075,-1.3514 -0.116549,-0.427 -0.182757,-0.86048 -0.219957,-1.29799 0.01039,-0.47386 -0.07591,-0.92112 -0.264761,-1.36228 -0.164862,-0.4386 -0.293934,-0.88868 -0.4204,-1.33749 -0.1214,-0.46276 -0.129159,-0.93663 -0.250087,-1.39894 -0.180618,-0.34007 -0.319154,-0.69339 -0.490054,-1.03695 -0.161824,-0.41654 -0.271276,-0.84985 -0.386164,-1.27885 -0.06582,-0.51414 -0.443494,-0.91691 -0.682173,-1.37058 -0.304384,-0.49587 -0.575749,-1.00304 -0.818175,-1.52608 -0.211237,-0.54167 -0.612067,-0.99521 -0.87992,-1.51191 -0.253212,-0.44059 -0.387591,-0.92457 -0.675479,-1.34957 -0.284931,-0.37257 -0.505129,-0.77412 -0.706896,-1.18606 -0.196992,-0.45898 -0.368704,-0.92463 -0.582642,-1.37751 -0.250407,-0.39913 -0.394567,-0.83659 -0.586262,-1.25795 -0.263273,-0.37246 -0.31278,-0.82746 -0.584296,-1.1914 -0.140384,-0.15589 -0.234947,-0.33277 -0.324972,-0.51364 0,0 1.934592,-0.96329 1.934592,-0.96329 l 0,0 c 0.08323,0.17214 0.174271,0.33787 0.306724,0.48593 0.272642,0.38102 0.3399,0.83646 0.60428,1.22473 0.189865,0.42131 0.331181,0.85875 0.583767,1.25628 0.211619,0.45291 0.385017,0.91692 0.579452,1.37591 0.197377,0.40486 0.417208,0.7968 0.695959,1.16304 0.287204,0.43423 0.429638,0.92113 0.682386,1.37038 0.265037,0.5202 0.668906,0.9762 0.882703,1.51947 0.238661,0.52119 0.510142,1.02447 0.815061,1.51688 0.243612,0.46498 0.634579,0.87998 0.705764,1.40493 0.109354,0.41797 0.226058,0.83647 0.370915,1.24497 0.176228,0.35482 0.319071,0.71916 0.507661,1.06961 0.12433,0.46244 0.140279,0.93256 0.246333,1.39833 0.121331,0.44192 0.256444,0.88202 0.409323,1.3156 0.196952,0.45727 0.312977,0.91983 0.294485,1.41324 0.03279,0.43221 0.09127,0.86145 0.21241,1.28217 0.08637,0.44122 0.03776,0.89592 0.155445,1.33482 0.129939,0.4598 0.355757,0.8916 0.484721,1.3521 0.283904,0.7222 0.507165,1.4611 0.720118,2.2019 0,0 -1.948014,0.9329 -1.948014,0.9329 z"
       inkscape:connector-curvature="0" />
    <path
       style="fill:#ffdd55;fill-opacity:1;stroke:#000000;stroke-width:0.6428504;stroke-miterlimit:4;stroke-opacity:0;stroke-dasharray:none"
       id="path3773"
       d="m 77.666066,1005.579 c 0.11514,-0.7432 0.151954,-1.4916 0.296096,-2.2311 0.142429,-0.628 0.193802,-1.266 0.222293,-1.9046 0.01093,-0.6401 0.143818,-1.272 0.216977,-1.90797 0.127745,-0.54655 0.245654,-1.09125 0.304045,-1.64747 0.04828,-0.55331 0.05259,-1.10855 0.05541,-1.6632 0.03574,-0.53635 0.326349,-1.0194 0.540567,-1.51219 0.18069,-0.52755 0.307983,-1.06506 0.519239,-1.5846 0.186097,-0.45419 0.36203,-0.91251 0.579707,-1.35581 0.170986,-0.41784 0.312877,-0.84092 0.527016,-1.24405 0.223254,-0.41563 0.413885,-0.8357 0.523481,-1.2861 0.196744,-0.43228 0.42643,-0.8521 0.627647,-1.28395 0.212874,-0.49243 0.49417,-0.95679 0.72318,-1.44449 0.157751,-0.51395 0.501545,-0.93914 0.827894,-1.37572 0.298796,-0.36692 0.636553,-0.70939 0.980793,-1.04353 0.363469,-0.26782 0.744847,-0.51769 1.140536,-0.74743 0.857567,-0.72807 1.795235,-1.10748 2.87601,-1.66271 -3.336541,1.73561 -1.511146,0.83054 -0.830741,0.2939 0,0 2.050827,-0.74986 2.050827,-0.74986 l 0,0 c -0.802045,0.75994 -2.007037,1.12292 -2.948682,1.69002 3.336982,-1.7339 1.497813,-0.89637 0.916771,-0.29188 -0.374921,0.25013 -0.775819,0.46906 -1.156033,0.71459 -0.367765,0.30756 -0.666036,0.67303 -1.002068,1.00734 -0.306379,0.43898 -0.71193,0.82943 -0.845407,1.34657 -0.120522,0.247 -0.217886,0.50144 -0.353498,0.74253 -0.08827,0.15693 -0.206887,0.30028 -0.285727,0.46111 -0.03713,0.0757 -0.05568,0.1576 -0.08353,0.23641 -0.187961,0.42777 -0.382623,0.85376 -0.645169,1.2509 -0.09515,0.46686 -0.268395,0.90111 -0.497945,1.32917 -0.216667,0.40161 -0.397404,0.80792 -0.530118,1.23861 -0.21849,0.44148 -0.412354,0.89034 -0.588992,1.34678 -0.219666,0.51855 -0.372102,1.04783 -0.51976,1.58579 -0.196183,0.48143 -0.485947,0.93906 -0.573696,1.44972 -0.0029,0.5599 -0.0075,1.12023 -0.0508,1.67907 -0.05039,0.55725 -0.138241,1.10892 -0.302801,1.64991 -0.07063,0.6334 -0.204108,1.26216 -0.226181,1.89824 -0.02517,0.6461 -0.06157,1.2934 -0.208404,1.9286 -0.150168,0.7349 -0.214783,1.4751 -0.292889,2.2187 0,0 -1.986054,0.8687 -1.986054,0.8687 z"
       inkscape:connector-curvature="0" />
    <path
       style="fill:#ffdd55;fill-opacity:1;stroke:#000000;stroke-width:0.6428504;stroke-miterlimit:4;stroke-opacity:0;stroke-dasharray:none"
       id="path3775"
       d="m 103.09814,1005.5899 c 0.0122,-0.7558 0.007,-1.5118 0.004,-2.2678 -0.002,-0.5553 -0.003,-1.1107 -0.004,-1.6661 -0.001,-0.5328 0.001,-1.0657 0.001,-1.5986 0.0247,-0.52799 -0.10515,-1.04176 -0.26921,-1.54472 -0.19036,-0.51112 -0.2027,-1.05049 -0.2976,-1.57642 -0.0844,-0.4985 -0.27748,-0.97279 -0.40321,-1.4629 -0.10844,-0.51373 -0.12806,-1.03518 -0.21913,-1.55127 -0.13034,-0.52361 -0.36085,-1.01837 -0.53541,-1.52937 -0.16764,-0.62192 -0.37129,-1.23567 -0.54273,-1.85683 -0.15291,-0.54861 -0.3762,-1.07436 -0.58507,-1.60659 -0.10192,-0.41724 -0.271775,-0.8171 -0.380907,-1.23265 -0.178784,-0.36693 -0.237035,-0.76927 -0.443566,-1.12429 -0.234249,-0.35359 -0.355153,-0.75184 -0.607376,-1.09646 -0.210436,-0.30776 -0.5508,-0.53939 -0.873891,-0.754 -0.316723,-0.28187 -0.72885,-0.44728 -1.074043,-0.69716 -0.404077,-0.21013 -0.584454,-0.59284 -0.829519,-0.92515 -0.04073,-0.0606 -0.08146,-0.12109 -0.122194,-0.18163 0,0 1.919483,-0.98439 1.919483,-0.98439 l 0,0 c 0.03925,0.0584 0.07849,0.11676 0.117739,0.17514 0.231973,0.31818 0.408701,0.66943 0.794031,0.86928 0.352693,0.23776 0.751596,0.41977 1.070829,0.69604 0.338084,0.23636 0.698144,0.476 0.915174,0.81129 0.25139,0.35267 0.38397,0.75111 0.61537,1.11313 0.21722,0.37091 0.28734,0.78342 0.4715,1.1678 0.10164,0.41073 0.27687,0.802 0.36746,1.21516 0.20524,0.54026 0.42983,1.0725 0.58518,1.62727 0.166,0.61844 0.38077,1.2253 0.54384,1.84414 0.17424,0.52001 0.40828,1.02283 0.54707,1.55322 0.095,0.51225 0.12832,1.02645 0.21661,1.53929 0.12089,0.49502 0.32154,0.97056 0.40701,1.47265 0.1025,0.5173 0.10129,1.05081 0.28641,1.5556 0.17246,0.51855 0.31571,1.04992 0.29561,1.59527 6e-5,0.53242 0.003,1.06485 10e-4,1.59725 -3.6e-4,0.5565 -10e-4,1.113 -0.004,1.6694 -0.003,0.7546 -0.008,1.5093 0.004,2.2639 0,0 -1.97386,0.8905 -1.97386,0.8905 z"
       inkscape:connector-curvature="0" />
    <path
       style="fill:#ffdd55;fill-opacity:1;stroke:#000000;stroke-width:0.6428504;stroke-miterlimit:4;stroke-opacity:0;stroke-dasharray:none"
       id="path3777"
       d="m 103.68505,1005.0835 c 0.17162,-0.9183 0.47336,-1.8063 0.84916,-2.6733 0.25345,-0.6268 0.53524,-1.2423 0.88572,-1.8312 0.26816,-0.4736 0.48521,-0.96075 0.67502,-1.46195 0.20459,-0.45563 0.44969,-0.89519 0.67043,-1.34434 0.16904,-0.3872 0.32561,-0.77493 0.46522,-1.17113 0.19409,-0.44482 0.38383,-0.88334 0.53824,-1.34108 0.17516,-0.51421 0.28638,-1.04094 0.48131,-1.55015 0.22209,-0.47935 0.32499,-0.98954 0.47423,-1.48803 0.19776,-0.465 0.41603,-0.92167 0.57899,-1.39779 0.14021,-0.56376 0.30992,-1.11718 0.56794,-1.64782 0.2168,-0.43611 0.36418,-0.88228 0.64341,-1.29151 0.3142,-0.52478 0.67492,-1.02549 1.04864,-1.51813 0.27201,-0.42091 0.61627,-0.77899 0.99269,-1.12684 0.38358,-0.34593 0.82,-0.63489 1.25988,-0.921 6.82525,-3.46794 -1.41061,0.69498 0.8463,-0.462 0.70507,-0.36144 1.4198,-0.70826 2.11825,-1.07963 0.55681,-0.29606 -1.12883,0.5691 -1.69324,0.85365 0.0664,-0.0384 0.13285,-0.0768 0.19928,-0.11513 0,0 2.06736,-0.71121 2.06736,-0.71121 l 0,0 c -0.0674,0.0366 -0.1348,0.0732 -0.2022,0.10973 -6.72024,3.51002 1.40668,-0.70836 -0.83603,0.45403 -0.70072,0.36319 -1.40252,0.72478 -2.10046,1.09215 -0.55149,0.29028 1.10741,-0.57393 1.66111,-0.86089 -0.44919,0.26864 -0.87394,0.56219 -1.27404,0.88489 -0.37287,0.34691 -0.75669,0.6665 -1.01259,1.09702 -0.36642,0.4921 -0.75689,0.97284 -1.0496,1.50485 -0.0403,0.0647 -0.0806,0.1294 -0.12087,0.19411 -0.0447,0.0514 -0.0971,0.0981 -0.13401,0.15414 -0.18876,0.28678 -0.19707,0.64495 -0.40144,0.92779 -0.28078,0.51547 -0.46059,1.06047 -0.58245,1.62226 -0.14891,0.47778 -0.34064,0.94446 -0.57933,1.39311 -0.1509,0.50296 -0.25274,1.01743 -0.46714,1.50384 -0.21712,0.50149 -0.31929,1.02689 -0.48566,1.54181 -0.088,0.24461 -0.13901,0.50225 -0.24344,0.74173 -0.25894,0.59381 0.0546,-0.20378 -0.21157,0.38048 -0.0325,0.0714 -0.0515,0.14707 -0.0772,0.22061 -0.15541,0.39441 -0.27654,0.79828 -0.45851,1.1839 -0.19996,0.45475 -0.46679,0.88419 -0.67815,1.33532 -0.20479,0.5046 -0.38962,1.01062 -0.66466,1.49096 -0.35398,0.58505 -0.66202,1.18625 -0.90765,1.81505 -0.3804,0.8496 -0.7078,1.7143 -0.85685,2.623 0,0 -1.98606,0.8687 -1.98606,0.8687 z"
       inkscape:connector-curvature="0" />
    <path
       style="fill:#ffdd55;fill-opacity:1;stroke:#000000;stroke-width:0.6428504;stroke-miterlimit:4;stroke-opacity:0;stroke-dasharray:none"
       id="path3779"
       d="m 107.52051,1007.593 c -0.29287,-0.7931 -0.50972,-1.6024 -0.65782,-2.4259 -0.21825,-0.6474 -0.40349,-1.3028 -0.60752,-1.9536 -0.20946,-0.5814 -0.24182,-1.1919 -0.35482,-1.7886 -0.12338,-0.6036 -0.2875,-1.1979 -0.51464,-1.77731 -0.27334,-0.61377 -0.4535,-1.25008 -0.55014,-1.90301 -0.0676,-0.57286 -0.19551,-1.13741 -0.25918,-1.71118 -0.0617,-0.63683 -0.0344,-1.27283 -0.17764,-1.90096 -0.17087,-0.65025 -0.35783,-1.29714 -0.52467,-1.94818 -0.12438,-0.5549 -0.30524,-1.09601 -0.40519,-1.65547 -0.0704,-0.49758 -0.0685,-0.99622 -0.16352,-1.49099 -0.12171,-0.60888 -0.16144,-1.22596 -0.18437,-1.84286 -0.0191,-0.61694 -0.0219,-1.23414 -0.0233,-1.85127 0.0194,-0.45128 -0.12482,-0.88916 -0.19643,-1.33293 -0.15377,-0.4564 -0.24734,-0.92307 -0.30554,-1.39576 -0.0179,-0.56584 -0.0792,-1.12274 -0.17646,-1.6819 -0.0652,-0.52242 -0.17371,-1.03964 -0.33825,-1.54476 -0.15474,-0.50163 -0.36511,-0.98691 -0.5042,-1.49233 -0.17718,-0.48793 -0.29522,-0.98896 -0.45101,-1.48205 -0.10912,-0.46229 -0.22789,-0.91828 -0.3656,-1.37455 -0.0831,-0.17663 -0.16616,-0.35248 -0.24153,-0.53183 0,0 1.94072,-0.95343 1.94072,-0.95343 l 0,0 c 0.0764,0.18573 0.16222,0.36721 0.2501,0.54893 0.13426,0.45661 0.26159,0.90982 0.36028,1.37376 0.15678,0.49564 0.27481,0.99895 0.45545,1.48878 0.13155,0.50395 0.34491,0.98446 0.49784,1.48323 0.17499,0.51118 0.28735,1.03807 0.35064,1.56905 0.0966,0.56176 0.17702,1.11977 0.18401,1.6891 0.0525,0.47103 0.13913,0.93705 0.30487,1.38854 0.0685,0.4534 0.22059,0.89927 0.20577,1.35898 -0.001,0.61607 -0.003,1.23224 0.0141,1.84817 0.0231,0.60729 0.0561,1.21573 0.1779,1.81502 0.10055,0.49655 0.11298,0.99343 0.16517,1.49517 0.0914,0.55732 0.27071,1.09449 0.39261,1.64612 0.16169,0.65285 0.35385,1.29943 0.52339,1.95073 0.16138,0.63383 0.14355,1.27343 0.19214,1.91939 0.0618,0.5724 0.19086,1.13466 0.25972,1.70521 0.0834,0.64147 0.24891,1.26786 0.51932,1.86938 0.23906,0.58649 0.4166,1.18864 0.53975,1.80281 0.1186,0.5894 0.1347,1.196 0.34365,1.7713 0.2098,0.6577 0.37424,1.327 0.61276,1.9781 0.1347,0.8186 0.33602,1.6263 0.65966,2.4043 0,0 -1.94802,0.9328 -1.94802,0.9328 z"
       inkscape:connector-curvature="0" />
    <path
       style="fill:#ffdd55;fill-opacity:1;stroke:#000000;stroke-width:0.6428504;stroke-miterlimit:4;stroke-opacity:0;stroke-dasharray:none"
       id="path3781"
       d="m 116.12807,1003.8666 c 0.67942,-0.5071 1.22439,-1.1287 1.75552,-1.7543 0.41743,-0.4378 0.66509,-0.9655 0.95661,-1.4696 0.2638,-0.3674 0.35798,-0.79375 0.51543,-1.19928 0.14311,-0.43084 0.27117,-0.86574 0.42314,-1.29444 0.19827,-0.4947 0.42719,-0.97259 0.54877,-1.4881 0.14818,-0.48445 0.27739,-0.9695 0.34376,-1.46829 0.12131,-0.49359 0.35344,-0.96488 0.5519,-1.43883 0.1844,-0.64819 0.38528,-1.28808 0.64078,-1.91796 0.26992,-0.64449 0.46649,-1.30967 0.68917,-1.96723 0.20558,-0.57503 0.45516,-1.1359 0.65246,-1.71361 0.18798,-0.54042 0.44265,-1.05986 0.64382,-1.59576 0.20533,-0.47797 0.4285,-0.94984 0.68342,-1.40873 0.23245,-0.46436 0.41579,-0.94733 0.6645,-1.40492 0.32052,-0.48434 0.60757,-0.98532 0.99652,-1.43035 0.32985,-0.39011 0.64939,-0.77966 1.01534,-1.14358 0.33189,-0.35625 0.67287,-0.70463 1.01315,-1.05463 0.3471,-0.36022 0.74102,-0.68284 1.1296,-1.00742 0.17115,-0.12193 0.35273,-0.23154 0.53206,-0.34362 0,0 2.06796,-0.71507 2.06796,-0.71507 l 0,0 c -0.18792,0.10148 -0.34961,0.22812 -0.54566,0.31789 -0.40745,0.30055 -0.77705,0.64545 -1.14394,0.98338 -0.33762,0.35228 -0.68364,0.69436 -1.01474,1.0507 -0.38947,0.45734 0.0689,-0.0536 -0.34987,0.33532 -0.26006,0.24151 -0.41081,0.56324 -0.66759,0.80869 -0.41208,0.424 -0.69248,0.91542 -1.0159,1.39224 -0.27181,0.44645 -0.44781,0.93404 -0.66475,1.40204 -0.25222,0.45402 -0.47969,0.9144 -0.69878,1.38234 -0.18339,0.54193 -0.45254,1.056 -0.65252,1.59388 -0.18045,0.58376 -0.43188,1.14427 -0.64925,1.71692 -0.23928,0.65587 -0.41496,1.33022 -0.68828,1.97701 -0.2609,0.62692 -0.48415,1.25969 -0.63312,1.91521 -0.18991,0.4656 -0.39543,0.92756 -0.57215,1.39474 -0.057,0.50444 -0.16443,0.99963 -0.33968,1.48325 -0.0994,0.52836 -0.31563,1.01374 -0.53281,1.51087 -0.16838,0.42347 -0.28556,0.86202 -0.41781,1.29487 -0.16258,0.41325 -0.25439,0.84812 -0.50391,1.23088 -0.32683,0.49449 -0.52097,1.05839 -0.95403,1.49769 -0.52325,0.635 -1.07299,1.2562 -1.72433,1.7934 0,0 -2.05479,0.7344 -2.05479,0.7344 z"
       inkscape:connector-curvature="0" />
    <path
       style="fill:#ffdd55;fill-opacity:1;stroke:#000000;stroke-width:0.6428504;stroke-miterlimit:4;stroke-opacity:0;stroke-dasharray:none"
       id="path3783"
       d="m 120.40434,1000.7359 c -0.23073,0.6634 -0.51272,1.3097 -0.78267,1.9607 -0.2392,0.4004 -0.37952,0.8267 -0.52223,1.258 -0.14015,0.3828 -0.24633,0.7695 -0.4296,1.139 -0.0342,0.065 -0.0683,0.1309 -0.10244,0.1963 0,0 -2.01656,0.8162 -2.01656,0.8162 l 0,0 c 0.0333,-0.066 0.0666,-0.1329 0.0998,-0.1993 0.20776,-0.3572 0.31102,-0.7343 0.44064,-1.1168 0.17778,-0.421 0.23248,-0.8827 0.52759,-1.266 0.26015,-0.6481 0.56551,-1.2804 0.78818,-1.9409 0,0 1.99727,-0.8472 1.99727,-0.8472 z"
       inkscape:connector-curvature="0" />
    <path
       style="fill:#ffdd55;fill-opacity:1;stroke:#000000;stroke-width:0.6428504;stroke-miterlimit:4;stroke-opacity:0;stroke-dasharray:none"
       id="path3785"
       d="m 123.77436,1006.0962 c -0.0759,-0.7513 -0.26401,-1.4884 -0.48575,-2.215 -0.17594,-0.5385 -0.42558,-1.0512 -0.64736,-1.5746 -0.13875,-0.4583 -0.35116,-0.892 -0.57348,-1.3223 -0.23553,-0.5016 -0.52445,-0.9797 -0.80261,-1.46319 -0.32253,-0.47947 -0.52152,-1.00536 -0.79487,-1.5056 -0.3087,-0.59526 -0.50504,-1.22573 -0.72381,-1.849 -0.21826,-0.63676 -0.52237,-1.24281 -0.7742,-1.86998 -0.23776,-0.64489 -0.35612,-1.31588 -0.596,-1.9602 -0.20864,-0.56931 -0.41318,-1.1387 -0.64215,-1.70192 -0.22931,-0.58029 -0.42348,-1.16722 -0.5424,-1.77313 -0.14103,-0.50605 -0.35394,-0.99111 -0.49287,-1.49779 -0.10085,-0.52674 -0.2735,-1.0377 -0.36559,-1.56623 -0.0251,-0.48182 -0.17167,-0.94508 -0.24715,-1.4207 -0.0869,-0.56772 -0.17404,-1.14456 -0.33824,-1.69963 -0.1725,-0.43863 -0.25843,-0.89308 -0.3052,-1.3539 -0.12598,-0.42216 -0.18451,-0.85629 -0.28859,-1.28186 -0.1782,-0.5184 -0.3589,-1.03134 -0.46779,-1.5662 -0.0599,-0.4719 -0.21622,-0.92844 -0.38541,-1.37721 -0.11997,-0.30908 -0.17923,-0.63075 -0.22807,-0.95335 0,0 1.96053,-0.91247 1.96053,-0.91247 l 0,0 c 0.0424,0.31088 0.0939,0.62126 0.20812,0.91914 0.17357,0.45771 0.34157,0.92245 0.39716,1.40511 0.10134,0.53364 0.28097,1.04215 0.46612,1.55585 0.11503,0.4321 0.16259,0.87742 0.30365,1.30557 0.04,0.4505 0.11566,0.89567 0.28538,1.32414 0.17105,0.56101 0.25256,1.14799 0.34811,1.72177 0.0752,0.47529 0.23265,0.93581 0.24945,1.41795 0.0839,0.52487 0.25393,1.03074 0.3545,1.55235 0.13422,0.51297 0.35568,0.99939 0.49866,1.51009 0.10764,0.59707 0.29604,1.17287 0.52208,1.74308 0.22772,0.56512 0.44117,1.13347 0.64461,1.70584 0.24365,0.64274 0.35645,1.31313 0.58947,1.95849 0.25494,0.62867 0.56005,1.23729 0.78054,1.87586 0.21769,0.61324 0.4045,1.2362 0.71065,1.82196 0.27492,0.4979 0.47449,1.02222 0.79358,1.50156 0.28206,0.48454 0.56983,0.96621 0.80857,1.4692 0.22899,0.4329 0.44809,0.8707 0.58475,1.3346 0.21813,0.5313 0.46823,1.0508 0.64792,1.5947 0.22245,0.7346 0.40326,1.4792 0.50873,2.2349 0,0 -1.96104,0.9121 -1.96104,0.9121 z"
       inkscape:connector-curvature="0" />
    <path
       style="fill:#ffdd55;fill-opacity:1;stroke:#000000;stroke-width:0.6428504;stroke-miterlimit:4;stroke-opacity:0;stroke-dasharray:none"
       id="path3787"
       d="m 119.3524,1005.3313 c 0.1338,-0.7617 0.15215,-1.5338 0.25396,-2.2981 0.0929,-0.7303 0.22722,-1.4534 0.37116,-2.1768 0.14758,-0.6244 0.40048,-1.22223 0.56918,-1.84182 0.13034,-0.52993 0.25676,-1.06177 0.40176,-1.58877 0.15941,-0.50208 0.23916,-1.01831 0.44616,-1.50805 0.25262,-0.45649 0.323,-0.958 0.43462,-1.44931 0.13297,-0.50467 0.34344,-0.98656 0.4605,-1.49522 0.14365,-0.4214 0.27355,-0.84067 0.3378,-1.27779 0.11757,-0.40387 0.1973,-0.81554 0.30536,-1.22111 0.13571,-0.42486 0.29899,-0.84232 0.46474,-1.25861 0.21343,-0.46611 0.30026,-0.9639 0.43953,-1.44888 0.21716,-0.47055 0.36857,-0.95292 0.45305,-1.45512 0.0952,-0.5162 0.26336,-1.01628 0.41859,-1.51963 0.17696,-0.50871 0.40266,-1.00262 0.61887,-1.49897 0.26175,-0.4189 0.50028,-0.84955 0.7638,-1.26761 0.26919,-0.37321 0.65527,-0.66322 1.02291,-0.95791 1.11078,-0.78974 5.09877,-2.70747 1.12697,-0.69701 0.87763,-0.48903 0.12768,-0.075 2.30442,-1.16088 0,0 -1.7354,1.22393 -1.7354,1.22393 l 0,0 c 1.76097,-0.91251 2.26382,-1.16603 1.49703,-0.7782 -5.0925,2.65354 -0.82119,0.42624 -0.40631,0.21569 0.0681,-0.0346 -0.13239,0.0751 -0.19449,0.11757 -0.17492,0.11973 -0.32099,0.27193 -0.53497,0.34222 -0.38196,0.26593 -0.73999,0.57276 -1.05379,0.89984 -0.29229,0.39668 -0.47154,0.85115 -0.78216,1.23982 -0.22666,0.4864 -0.4267,0.98283 -0.62937,1.47739 -0.14583,0.49946 -0.32655,0.98906 -0.43037,1.49803 -0.0732,0.50698 -0.18658,1.012 -0.442,1.47489 -0.14167,0.48995 -0.22953,0.99136 -0.42876,1.46695 -0.17809,0.40707 -0.31978,0.8266 -0.46866,1.24241 -0.14307,0.38825 -0.15299,0.80989 -0.32254,1.19472 -0.0527,0.44255 -0.15016,0.87503 -0.33313,1.29146 -0.10395,0.51416 -0.30182,0.99868 -0.45836,1.49988 -0.13169,0.49529 -0.1622,1.01436 -0.41474,1.48156 -0.25484,0.46959 -0.30072,0.98682 -0.46237,1.48325 -0.16507,0.52068 -0.26727,1.05957 -0.40789,1.58561 -0.15845,0.62043 -0.405,1.21657 -0.57785,1.83367 -0.14421,0.7212 -0.29183,1.4402 -0.37857,2.1694 -0.11631,0.7605 -0.1313,1.5311 -0.24263,2.2928 0,0 -1.98605,0.8687 -1.98605,0.8687 z"
       inkscape:connector-curvature="0" />
    <path
       style="fill:#ffdd55;fill-opacity:1;stroke:#000000;stroke-width:0.6428504;stroke-miterlimit:4;stroke-opacity:0;stroke-dasharray:none"
       id="path3789"
       d="m 122.6026,1004.6639 c -0.27958,-0.758 -0.53503,-1.5242 -0.77323,-2.2934 -0.17262,-0.5555 -0.23201,-1.1283 -0.2598,-1.7015 0.0196,-0.5212 -0.0273,-1.0295 -0.12782,-1.542 -0.0747,-0.52929 -0.21066,-1.04894 -0.30781,-1.57501 -0.0561,-0.58964 -0.18714,-1.16938 -0.28728,-1.75376 -0.086,-0.51987 -0.10728,-1.04522 -0.11932,-1.56974 -0.008,-0.49614 -0.006,-0.99235 -0.005,-1.48852 10e-4,-0.54506 0.003,-1.09011 0.003,-1.63517 0.002,-0.56558 -0.12965,-1.12343 -0.1969,-1.68503 -0.0607,-0.54021 -0.0749,-1.08314 -0.0829,-1.62559 -0.002,-0.56641 -0.002,-1.13282 -0.002,-1.69923 8e-5,-0.51012 1.6e-4,-1.02023 2e-4,-1.53035 0.0382,-0.48437 -0.028,-0.95404 -0.118,-1.42974 -0.0615,-0.44914 -0.14699,-0.89896 -0.33656,-1.32104 -0.22645,-0.39325 -0.2835,-0.82867 -0.37409,-1.2557 -0.0892,-0.51701 -0.22405,-1.0202 -0.37667,-1.52452 -0.0983,-0.48003 -0.25379,-0.94826 -0.34582,-1.42931 -0.0138,-0.096 -0.0275,-0.19202 -0.0413,-0.28802 0,0 1.95715,-0.91002 1.95715,-0.91002 l 0,0 c 0.0126,0.0934 0.0253,0.18678 0.0379,0.28016 0.0884,0.47592 0.24981,0.93594 0.33982,1.41148 0.14994,0.50914 0.29153,1.01483 0.38039,1.53612 0.0996,0.41252 0.13598,0.83988 0.35968,1.22143 0.19925,0.43341 0.29567,0.89682 0.35512,1.36027 0.0933,0.48577 0.18149,0.96298 0.1352,1.45883 -2.5e-4,0.51045 -7.1e-4,1.02089 -0.002,1.53134 -10e-4,0.56549 -0.004,1.13101 0.002,1.69649 0.006,0.53751 0.0151,1.07558 0.0702,1.61126 0.0641,0.56843 0.20193,1.13137 0.20829,1.70251 -7.2e-4,0.54464 0.001,1.08928 1.5e-4,1.63392 -7.1e-4,0.49508 -0.003,0.99017 0.003,1.48524 0.009,0.51722 0.0247,1.03543 0.10315,1.54876 0.0948,0.58441 0.23577,1.16211 0.2863,1.75162 0.0926,0.52591 0.23884,1.04223 0.31021,1.57094 0.10179,0.52046 0.16849,1.03573 0.14018,1.56583 0.0209,0.56065 0.0673,1.12175 0.22787,1.66685 0.22596,0.7615 0.47201,1.5217 0.76915,2.2635 0,0 -1.93249,0.9611 -1.93249,0.9611 z"
       inkscape:connector-curvature="0" />
    <path
       style="fill:#ffdd55;fill-opacity:1;stroke:#000000;stroke-width:0.6428504;stroke-miterlimit:4;stroke-opacity:0;stroke-dasharray:none"
       id="path3791"
       d="m 91.907173,1006.0854 c 0.01625,-0.7567 -0.122787,-1.5079 -0.192688,-2.2609 0.0025,-0.6524 -0.131575,-1.2894 -0.246247,-1.9305 -0.0422,-0.5253 -0.114324,-1.0395 -0.234688,-1.5548 -0.181643,-0.38793 -0.31083,-0.78315 -0.380677,-1.19822 -0.104619,-0.43648 -0.278913,-0.85443 -0.409395,-1.28432 -0.147169,-0.56689 -0.170939,-1.14824 -0.276342,-1.72124 -0.07775,-0.55041 -0.189977,-1.09238 -0.318161,-1.63494 -0.08248,-0.44849 -0.262917,-0.87776 -0.43753,-1.30343 -0.273566,-0.43701 -0.41011,-0.92459 -0.577547,-1.39823 -0.145346,-0.27958 -0.272063,-0.5659 -0.413228,-0.84701 0,0 1.929925,-0.96361 1.929925,-0.96361 l 0,0 c 0.146978,0.28746 0.273501,0.58227 0.423582,0.86868 0.165539,0.47105 0.301507,0.9554 0.57535,1.38893 0.17868,0.43426 0.368694,0.87131 0.450284,1.32964 0.126052,0.5461 0.249522,1.08891 0.318585,1.64376 0.10663,0.56672 0.140586,1.13923 0.270381,1.70238 0.131007,0.43756 0.31293,0.86097 0.425085,1.30363 0.0624,0.41288 0.187687,0.80449 0.373382,1.18793 0.119185,0.51914 0.204665,1.03475 0.237126,1.56465 0.109286,0.6473 0.248753,1.2897 0.24386,1.9476 0.0677,0.7568 0.19793,1.5102 0.212801,2.2695 0,0 -1.973858,0.8905 -1.973858,0.8905 z"
       inkscape:connector-curvature="0" />
    <path
       style="fill:#ffdd55;fill-opacity:1;stroke:#000000;stroke-width:0.6428504;stroke-miterlimit:4;stroke-opacity:0;stroke-dasharray:none"
       id="path3793"
       d="m 94.42514,1007.5718 c 0.01435,-0.8612 0.01021,-1.7227 0.0072,-2.584 -0.0055,-0.6743 -0.0025,-1.3485 -0.0025,-2.0227 -2.62e-4,-0.6042 -0.0039,-1.2083 -0.0022,-1.8125 0.06181,-0.4965 0.130399,-0.9976 0.247149,-1.48682 0.122536,-0.42824 0.262255,-0.85181 0.393715,-1.27788 0.0574,-0.47104 0.256469,-0.88884 0.465269,-1.31817 0.163723,-0.46301 0.319798,-0.93206 0.438292,-1.40658 0.172841,-0.4227 0.273369,-0.85861 0.382475,-1.29599 0.240477,-0.5579 0.410919,-1.12579 0.505881,-1.71649 0.135864,-0.53627 0.25022,-1.07398 0.312247,-1.62101 0.02603,-0.25365 0.03477,-0.50822 0.04377,-0.76266 0,0 1.975343,-0.88492 1.975343,-0.88492 l 0,0 c -0.0076,0.25838 -0.01496,0.51688 -0.03825,0.77464 -0.05554,0.54989 -0.149074,1.09582 -0.312157,1.62962 -0.08588,0.59522 -0.219683,1.17849 -0.489733,1.7326 -0.131036,0.42931 -0.163341,0.88187 -0.385815,1.28997 -0.108377,0.48724 -0.285626,0.95818 -0.419448,1.43909 -0.192257,0.42896 -0.455662,0.81883 -0.478914,1.29441 -0.121346,0.42783 -0.271826,0.84749 -0.393078,1.27525 -0.154953,0.46765 -0.167754,0.96922 -0.277921,1.44664 0.0018,0.6048 -0.0018,1.2096 -0.0022,1.8144 1.04e-4,0.675 0.0029,1.35 -0.0025,2.025 -0.0029,0.8592 -0.0073,1.7185 0.0072,2.5776 0,0 -1.973858,0.8905 -1.973858,0.8905 z"
       inkscape:connector-curvature="0" />
  </g>
</svg>
