<?xml version="1.0" encoding="UTF-8" standalone="no"?>
<!-- Created with Inkscape (http://www.inkscape.org/) -->

<svg
   xmlns:dc="http://purl.org/dc/elements/1.1/"
   xmlns:cc="http://creativecommons.org/ns#"
   xmlns:rdf="http://www.w3.org/1999/02/22-rdf-syntax-ns#"
   xmlns:svg="http://www.w3.org/2000/svg"
   xmlns="http://www.w3.org/2000/svg"
   xmlns:sodipodi="http://sodipodi.sourceforge.net/DTD/sodipodi-0.dtd"
   xmlns:inkscape="http://www.inkscape.org/namespaces/inkscape"
   width="34.903736"
   height="63.301277"
   id="svg2"
   version="1.1"
   inkscape:version="0.48.5 r10040"
   sodipodi:docname="farmer.svg"
   inkscape:export-filename="C:\Users\Jason\Desktop\village_images\bmp\farmer.png"
   inkscape:export-xdpi="100"
   inkscape:export-ydpi="100">
  <defs
     id="defs4" />
  <sodipodi:namedview
     id="base"
     pagecolor="#ffffff"
     bordercolor="#666666"
     borderopacity="1.0"
     inkscape:pageopacity="0.0"
     inkscape:pageshadow="2"
     inkscape:zoom="12.252274"
     inkscape:cx="48.524121"
     inkscape:cy="34.418615"
     inkscape:document-units="px"
     inkscape:current-layer="layer1"
     showgrid="false"
     fit-margin-top="0"
     fit-margin-left="0"
     fit-margin-right="0"
     fit-margin-bottom="0"
     inkscape:window-width="1920"
     inkscape:window-height="1137"
     inkscape:window-x="-8"
     inkscape:window-y="-8"
     inkscape:window-maximized="1" />
  <metadata
     id="metadata7">
    <rdf:RDF>
      <cc:Work
         rdf:about="">
        <dc:format>image/svg+xml</dc:format>
        <dc:type
           rdf:resource="http://purl.org/dc/dcmitype/StillImage" />
        <dc:title></dc:title>
      </cc:Work>
    </rdf:RDF>
  </metadata>
  <g
     inkscape:label="Layer 1"
     inkscape:groupmode="layer"
     id="layer1"
     transform="translate(-44.428235,-969.35954)">
    <path
       style="fill:#deaa87;stroke:#000000;stroke-width:0.09316555px;stroke-linecap:butt;stroke-linejoin:miter;stroke-opacity:0"
       d="m 58.822933,996.64208 c 0,0 -5.248082,0.3605 -5.189769,4.05562 0.05831,3.6951 1.574424,10.2741 1.107927,10.2741 -0.466495,0 -1.107927,0.5408 -0.874679,1.442 0.233248,0.9012 -1.282865,2.5235 -1.924297,1.3519 -0.641432,-1.1716 -2.33248,-14.41992 -2.099232,-15.05072 0.233247,-0.6309 1.632736,-8.021 5.014833,-7.9309 3.382096,0.09 3.848593,0.721 3.848593,0.721 z"
       id="path2989"
       inkscape:connector-curvature="0" />
    <path
       style="fill:#ffdd55;stroke:#000000;stroke-width:0.09680772px;stroke-linecap:butt;stroke-linejoin:miter;stroke-opacity:1"
       d="m 59.272652,996.81608 c 0,0 -2.671396,-0.1826 -3.696465,0.9134 -1.025071,1.096 -1.428886,0.6393 -1.553138,1.4614 -0.124251,0.82202 -0.03107,3.88172 -0.03107,3.88172 l 0.279565,2.7857 -3.572215,1.5527 -0.807631,-5.5258 -0.310627,-2.92272 1.801638,-5.0234 1.646326,-2.603 2.919897,-0.7764 3.261588,0.959 0.310627,5.1148 z"
       id="path3759"
       inkscape:connector-curvature="0" />
    <rect
       style="fill:#c87137;fill-opacity:1;stroke:#000000;stroke-width:3.89686131;stroke-miterlimit:4;stroke-opacity:0;stroke-dasharray:none"
       id="rect3814"
       width="1.4340074"
       height="59.245426"
       x="74.262016"
       y="971.64062" />
    <path
       style="fill:#784421;stroke:#000000;stroke-width:1px;stroke-linecap:butt;stroke-linejoin:miter;stroke-opacity:0"
       d="m 55.491554,1005.763 c 0,0 -3.1787,25.1116 0.106,25.3235 3.2846,0.2119 3.1787,-14.1981 3.1787,-14.1981 l 0.5297,-3.2846 4.4502,0.1059 1.3774,17.8007 c 0,0 5.8276,3.3906 4.6621,-0.5298 -1.1655,-3.9204 -2.5429,-24.7938 -2.5429,-24.7938 z"
       id="path3034"
       inkscape:connector-curvature="0" />
    <path
       style="fill:#deaa87;stroke:#000000;stroke-width:0.10090462px;stroke-linecap:butt;stroke-linejoin:miter;stroke-opacity:0"
       d="m 67.316571,999.36377 c 0,0 6.15619,-0.3604 6.087787,-4.05554 -0.0684,-3.69509 -1.846857,-10.27411 -1.29964,-10.27411 0.547216,0 1.29964,-0.5408 1.026032,-1.442 -0.273609,-0.9013 1.504846,-2.5235 2.257269,-1.3519 0.752423,1.1716 2.736084,14.41985 2.462475,15.05075 -0.273607,0.6309 -1.915259,8.02103 -5.882581,7.93093 -3.967321,-0.09 -4.514539,-0.721 -4.514539,-0.721 z"
       id="path2989-1"
       inkscape:connector-curvature="0" />
    <path
       style="fill:#ffdd55;stroke:#000000;stroke-width:0.10484934000000000px;stroke-linecap:butt;stroke-linejoin:miter;stroke-opacity:1"
       d="m 66.789034,999.18977 c 0,0 3.133644,0.1827 4.336088,-0.9133 1.202445,-1.096 1.676135,-0.6394 1.821886,-1.4614 0.145751,-0.82201 0.03643,-3.88174 0.03643,-3.88174 l -0.327941,-2.78571 4.190338,-1.5527 0.94738,5.52577 0.364378,2.92278 -2.113388,5.02343 -1.931199,2.603 -3.425145,0.7764 -3.825961,-0.959 -0.364377,-5.11483 z"
       id="path3759-7"
       inkscape:connector-curvature="0" />
    <path
       style="fill:#ffeeaa;stroke:#000000;stroke-width:0.10880152999999999px;stroke-linecap:butt;stroke-linejoin:miter;stroke-opacity:1"
       d="m 55.07136,982.63576 c 1.351968,0.27037 3.896848,2.88397 7.95275,1.62223 4.055902,-1.26173 4.13543,-1.35186 4.13543,-1.35186 l 0.31811,24.60387 c 0,0 -8.986607,1.8926 -10.577157,0.721 -1.59055,-1.1717 -1.431495,-1.0815 -1.431495,-1.0815 l -0.31811,-23.973 z"
       id="path2985"
       inkscape:connector-curvature="0" />
    <path
       sodipodi:type="arc"
       style="fill:#deaa87;fill-opacity:1;stroke:#000000;stroke-width:1.89999998;stroke-miterlimit:4;stroke-opacity:0;stroke-dasharray:none"
       id="path3782"
       sodipodi:cx="309.68997"
       sodipodi:cy="250.12511"
       sodipodi:rx="52.133739"
       sodipodi:ry="52.911854"
       d="m 361.82371,250.12511 c 0,29.22241 -23.34107,52.91185 -52.13374,52.91185 -28.79267,0 -52.13374,-23.68944 -52.13374,-52.91185 0,-29.22241 23.34107,-52.91186 52.13374,-52.91186 28.79267,0 52.13374,23.68945 52.13374,52.91186 z"
       transform="matrix(0.10748765,0,0,0.07993652,28.026423,960.75192)" />
    <rect
       style="fill:#784421;fill-opacity:1;stroke:#000000;stroke-width:0.2067229;stroke-miterlimit:4;stroke-opacity:0;stroke-dasharray:none"
       id="rect3803"
       width="1.113385"
       height="24.423624"
       x="57.29813"
       y="984.0777" />
    <rect
       style="fill:#784421;fill-opacity:1;stroke:#000000;stroke-width:0.20879604;stroke-miterlimit:4;stroke-opacity:0;stroke-dasharray:none"
       id="rect3805"
       width="1.27244"
       height="23.812664"
       x="62.94458"
       y="984.52832" />
    <path
       style="fill:#ffffff;fill-opacity:1;stroke:#000000;stroke-width:1.89999998;stroke-miterlimit:4;stroke-opacity:0;stroke-dasharray:none"
       id="path3804"
       d="m 20.430075,9.005744 c 0.06281,0.2303323 0.131504,0.4583368 0.176251,0.6931169 0.02365,0.1698779 0.06573,0.3361131 0.09064,0.5057851 0.01676,0.166496 0.0039,0.24278 -0.09014,0.377223 -0.525894,0.487628 -0.484014,0.341055 -1.706742,1.007244 -0.03619,0.01972 -0.09815,6.44e-4 -0.132793,-0.0061 -0.122934,-0.02664 -0.230051,-0.106756 -0.317095,-0.1952 -0.07573,-0.09283 -0.132948,-0.196563 -0.190499,-0.301114 -0.06676,-0.128667 -0.08402,-0.263581 -0.06343,-0.405147 0.02697,-0.130801 0.100221,-0.236879 0.171858,-0.34573 0.321781,-0.4097778 1.262431,-1.2610697 1.85775,-0.8572061 0.110347,0.098077 0.195645,0.2121764 0.260005,0.3446284 0.06883,0.1523811 0.07487,0.3110107 0.05661,0.4740707 -0.01979,0.151797 -0.07132,0.295385 -0.147796,0.427324 -0.509011,0.625005 -1.310732,1.287748 -1.91174,0.764576 -0.105676,-0.130685 -0.197619,-0.272797 -0.258563,-0.429775 -0.04562,-0.113052 -0.113787,-0.212442 -0.15672,-0.326682 -0.06071,-0.113508 -0.09239,-0.235659 -0.111749,-0.362 -0.02456,-0.146782 -0.0052,-0.281828 0.06926,-0.4099485 0.441729,-0.5051425 0.09568,-0.1210953 1.629336,-0.9437807 0.02701,-0.01449 0.110536,0.026058 0.12789,0.03763 0.03698,0.024664 0.06684,0.05865 0.101183,0.086879 0.09843,0.093204 0.161632,0.1967779 0.201347,0.3262476 0.02966,0.076194 0.05392,0.153677 0.0738,0.2329268 0,0 -1.569071,0.8448182 -1.569071,0.8448182 l 0,0 c -0.01607,-0.07781 -0.03858,-0.153212 -0.07051,-0.226209 -0.02168,-0.09369 -0.06524,-0.163054 -0.143644,-0.221638 -0.04154,-0.02598 -0.04363,-0.02599 -0.08681,-0.0052 -0.01403,0.0068 -0.05491,0.02945 -0.04143,0.02164 1.491349,-0.8634194 2.027177,-1.0273673 1.423788,-0.8374886 -0.106724,0.056577 -0.155465,0.1417756 -0.138914,0.2648077 0.01236,0.1159949 0.03691,0.2259077 0.0957,0.3283638 0.03733,0.1154226 0.113433,0.2116601 0.153046,0.3266461 0.04249,0.126667 0.114082,0.247255 0.20882,0.341572 0.0404,0.02484 0.08692,0.06058 0.137994,0.05104 0.01602,-0.003 0.0594,-0.0265 0.04531,-0.01834 -1.475991,0.854676 -2.037288,0.983678 -1.425103,0.836769 0.123017,-0.06313 0.158501,-0.199429 0.199331,-0.323144 0.01959,-0.131745 0.04636,-0.255141 -0.0103,-0.383085 -0.04404,-0.09495 -0.107373,-0.187286 -0.199764,-0.240756 -0.04209,-0.0073 -0.08801,-0.01001 -0.128712,0.008 -0.01222,0.0054 -0.04412,0.03004 -0.03256,0.02335 1.52623,-0.8826819 2.024271,-1.0666781 1.436953,-0.8458945 -0.08936,0.06744 -0.16111,0.1710987 -0.205474,0.2728052 -0.05221,0.093153 -0.04869,0.1832563 -9.23e-4,0.2791443 0.04814,0.0875 0.0936,0.176478 0.161352,0.250951 0.07309,0.0569 0.1427,0.09959 0.238659,0.07983 0.548702,-0.227501 1.257909,-0.7369651 -1.384745,0.80789 -0.03008,0.01759 0.06937,-0.01858 0.09627,-0.04073 0.01398,-0.01151 0.02398,-0.02713 0.03598,-0.04069 0.126145,-0.06062 -0.03382,0.02254 0.07957,-0.05725 0.01243,-0.0087 0.02988,-0.0088 0.0418,-0.01818 0.04453,-0.03522 0.03556,-0.0984 0.04773,-0.147256 -0.019,-0.169368 -0.06158,-0.334005 -0.08144,-0.502977 -0.03398,-0.231623 -0.08925,-0.459593 -0.176561,-0.6773646 0,0 1.565009,-0.8463254 1.565009,-0.8463254 z"
       inkscape:connector-curvature="0"
       transform="translate(44.428235,969.35954)" />
    <path
       style="fill:#ffffff;fill-opacity:1;stroke:#000000;stroke-width:1.89999998;stroke-miterlimit:4;stroke-opacity:0;stroke-dasharray:none"
       id="path3806"
       d="m 14.117918,11.903171 c -0.225384,-0.02998 -0.390847,-0.103965 -0.504051,-0.306032 -0.06055,-0.147741 -0.03154,-0.294676 0.02405,-0.43815 0.410201,-0.565153 0.830102,-0.563671 1.696618,-1.03853 0.01962,-0.01075 0.04522,-8.81e-4 0.06677,-0.0069 0.01855,-0.0052 0.03435,-0.01745 0.05153,-0.02617 0.127798,-0.04009 0.249182,-0.087392 0.382419,-0.1094726 0.07334,0.01482 0.126027,-0.046166 0.193974,-0.054505 0.0703,-0.00863 0.144024,0.011766 0.208239,0.036065 0.140118,0.08338 0.194379,0.2230797 0.255677,0.3645447 0.04306,0.118767 0.09959,0.231569 0.136624,0.352499 0.03729,0.141861 0.0419,0.289043 0.04569,0.434829 0.01247,0.146902 -3.12e-4,0.280045 -0.0594,0.41447 -0.348433,0.557962 -1.101627,1.136345 -1.753784,0.941449 -0.04584,-0.0137 -0.08811,-0.03733 -0.132461,-0.05527 -0.117749,-0.04656 -0.228828,-0.109233 -0.347034,-0.157084 -0.02077,-0.0061 -0.0423,-0.01007 -0.06231,-0.01834 -0.207348,-0.08574 0.06523,0.01187 -0.122872,-0.05991 -0.06082,-0.02321 -0.116963,-0.03144 -0.176243,-0.0601 -0.01839,-0.0073 -0.03678,-0.01464 -0.05518,-0.02196 0,0 1.481368,-0.992102 1.481368,-0.992102 l 0,0 c 0.01838,0.0075 0.03677,0.01491 0.05515,0.02237 0.124592,0.03827 0.240568,0.09633 0.362079,0.142895 0.111712,0.05093 0.221668,0.10732 0.339475,0.142594 0.05076,0.01206 0.104826,0.02135 0.155625,-8.24e-4 0.01558,-0.0068 0.05545,-0.03922 0.04075,-0.03067 -1.512657,0.8793 -2.022652,1.016468 -1.424542,0.850214 0.111627,-0.07321 0.126635,-0.179233 0.115562,-0.306836 -0.0017,-0.131203 -0.002,-0.263587 -0.02699,-0.392883 -0.02959,-0.115307 -0.0876,-0.219102 -0.124389,-0.332031 -0.03557,-0.08138 -0.05669,-0.209373 -0.165173,-0.217197 -0.121657,0.01093 -0.23413,0.05919 -0.355232,0.07681 -0.125366,0.03884 -0.248175,0.08506 -0.372077,0.128089 -0.03884,0.0093 -0.147377,0.06029 -0.112843,0.04024 0.491623,-0.285457 0.984649,-0.56849 1.476973,-0.852735 -0.05625,0.01606 -0.101104,0.03045 -0.135323,0.08197 -0.08453,0.04884 -0.124747,0.164212 -0.11736,0.258606 0.06375,0.142935 0.265793,0.14316 0.398522,0.143953 0,0 -1.439853,1.046115 -1.439853,1.046115 z"
       inkscape:connector-curvature="0"
       transform="translate(44.428235,969.35954)" />
    <path
       style="fill:#000000;fill-opacity:1;stroke:#000000;stroke-width:1.89999998;stroke-miterlimit:4;stroke-opacity:0;stroke-dasharray:none"
       id="path3808"
       d="m 19.748781,10.148625 c -0.08537,0.180318 -0.176624,0.353455 -0.334803,0.478945 -0.287317,0.181165 -0.781523,0.686103 -1.034794,0.256368 -0.0497,-0.131716 -0.130369,-0.256356 -0.08129,-0.397852 0.609571,-0.363336 0.584915,-0.5207463 1.082411,-0.432444 0.022,0.0034 0.04399,0.0068 0.06599,0.01022 0,0 -0.667733,0.469508 -0.667733,0.469508 l 0,0 c -0.02213,-0.0035 -0.04426,-0.007 -0.06639,-0.01045 -0.08622,-0.01248 -0.166117,-0.02153 -0.250681,0.0073 -0.0195,0.0066 -0.07382,0.03631 -0.0563,0.02549 0.213941,-0.1322 0.430631,-0.259897 0.645946,-0.389846 -0.01363,0.005 -0.03072,0.0046 -0.0409,0.01494 -0.06366,0.06465 0.06878,0.227239 0.07501,0.293969 0.0284,0.04627 0.05262,0.0828 0.111159,0.09066 0.03305,0.0044 0.126811,-0.03547 0.09843,-0.01796 -0.21055,0.129965 -0.426277,0.25135 -0.639415,0.377024 0.176479,-0.09775 0.266475,-0.256943 0.351779,-0.435079 0,0 0.741575,-0.340775 0.741575,-0.340775 z"
       inkscape:connector-curvature="0"
       transform="translate(44.428235,969.35954)" />
    <path
       style="fill:#000000;fill-opacity:1;stroke:#000000;stroke-width:1.89999998;stroke-miterlimit:4;stroke-opacity:0;stroke-dasharray:none"
       id="path3810"
       d="m 15.464054,11.118767 c 0.160564,0.08263 0.352293,0.196641 0.536167,0.131066 0.274313,-0.126294 0.168126,-0.07916 -0.602405,0.344213 -0.01472,0.0081 0.02837,-0.01847 0.04013,-0.03046 0.04135,-0.04216 0.05279,-0.09731 0.06604,-0.152329 0.02956,-0.130382 0.0094,-0.242849 -0.05925,-0.355815 -0.10619,-0.103702 -0.145808,-0.10349 -0.265305,-0.03707 1.001381,-0.58311 0.680957,-0.517465 0.524042,-0.153321 -0.02413,0.07571 -0.01182,0.03752 -0.03693,0.114569 0,0 -0.741267,0.344159 -0.741267,0.344159 l 0,0 c 0.03167,-0.07068 0.01872,-0.03286 0.03724,-0.113989 0.141138,-0.436692 0.301269,-0.396656 0.860626,-0.696802 0.130491,-0.03312 0.246572,0.03045 0.328118,0.132967 0.07622,0.128382 0.114282,0.258169 0.08704,0.408229 -0.06096,0.42663 -0.407728,0.581864 -0.889706,0.687453 -0.204818,0.0079 -0.390709,-0.08562 -0.568401,-0.178333 0,0 0.683869,-0.444543 0.683869,-0.444543 z"
       inkscape:connector-curvature="0"
       transform="translate(44.428235,969.35954)" />
    <path
       style="fill:#c87137;fill-opacity:1;stroke:#000000;stroke-width:1.89999998;stroke-miterlimit:4;stroke-opacity:0;stroke-dasharray:none"
       id="path3812"
       d="m 13.930372,7.9263589 c -0.217643,0.1177303 -0.442532,0.2205383 -0.6614,0.335441 -0.151493,0.072322 -0.311858,0.1296213 -0.474508,0.1716561 0.155935,-0.1113794 -0.348557,0.1960225 -0.180882,0.099268 2.138868,-1.2342005 -1.639021,0.9396124 0.511147,-0.2904796 -0.129374,0.08078 -0.256213,0.1642949 -0.375791,0.2591217 -0.121076,0.098152 -0.230265,0.2086235 -0.329579,0.3284797 -0.07002,0.1123811 -0.147548,0.220202 -0.217242,0.3326874 -0.06462,0.1095991 -0.136178,0.2116598 -0.190569,0.3270529 -0.01619,0.00147 -0.110761,0.2688877 -0.072,0.203396 0.206909,-0.2120343 0.394353,-0.2485821 -0.586275,0.3109268 -0.02208,0.0126 0.04362,-0.026154 0.06496,-0.039964 0.0548,-0.035459 0.07695,-0.052847 0.129708,-0.091463 0.155384,-0.088683 0.29556,-0.1955041 0.427789,-0.3155799 0.106137,-0.098772 0.207295,-0.2031634 0.305478,-0.3098449 0.09547,-0.1122299 0.20712,-0.2084689 0.31525,-0.3078686 0.09262,-0.097988 0.19733,-0.1816232 0.304011,-0.2634476 0.116564,-0.095882 0.230714,-0.1949009 0.339262,-0.299801 0.213613,-0.226204 0.854851,-0.7591652 0.93952,-0.2796521 0.0096,0.1241704 -0.03014,0.2405356 -0.07017,0.3558958 -0.04818,0.134406 -0.117529,0.2598128 -0.188292,0.383361 -0.09009,0.1443755 -0.233402,0.2409023 -0.36017,0.3504089 -0.144779,0.129041 -0.302875,0.2409411 -0.458903,0.3555591 -0.302319,0.2077991 -0.249942,0.1753698 -0.853149,0.4896155 -0.02992,0.01559 -0.101307,0.0032 -0.126887,-0.01848 -0.04989,-0.042326 -0.04638,-0.080618 -0.05714,-0.1390894 0.03788,-0.202462 0.186514,-0.3541795 0.322433,-0.4992661 0.168028,-0.1522382 0.323513,-0.3163422 0.50438,-0.4536383 C 13.297465,8.6064585 13.76631,8.3866893 14.213828,8.1375 14.022636,8.2471715 13.447472,8.5733672 13.640253,8.4665143 13.912804,8.3154469 14.18244,8.1591777 14.453157,8.0048468 c 0.03611,-0.020586 0.143621,-0.083763 0.107567,-0.063078 -0.195578,0.1122121 -0.783035,0.4475538 -0.586145,0.3376595 0.919769,-0.5133703 0.505116,-0.3264367 0.893855,-0.4978858 0.181429,-0.077997 0.357483,-0.1693325 0.542395,-0.2389562 0.130654,-0.080928 0.273314,-0.1198796 0.424168,-0.1383196 0.147248,-0.00892 0.296693,-0.023182 0.442725,0.00144 0.163938,0.013354 0.307816,0.060299 0.435384,0.1646482 0.114343,0.1186235 0.117049,0.2518199 0.06289,0.3989365 -0.01813,0.024318 -0.0332,0.051256 -0.05439,0.072955 -0.04619,0.047285 -0.133344,0.1032148 -0.188466,0.1348205 -0.382386,0.2192553 -0.67904,0.3884129 -1.044399,0.5678929 -0.224652,0.098668 -0.451109,0.1883754 -0.671317,0.2971342 -0.221431,0.099228 -0.454806,0.1695929 -0.67759,0.2655919 -0.168724,0.056566 -0.323939,0.1432667 -0.489087,0.2085402 -0.143357,0.073435 -0.298568,0.1141603 -0.448342,0.1711946 -0.0786,0.027557 -0.141805,-0.03884 -0.128071,-0.1198908 0.0071,-0.041754 0.04636,-0.073371 0.0722,-0.1011376 0.41779,-0.2949764 0.881091,-0.5203648 1.344496,-0.7334401 0.347357,-0.1373241 0.700345,-0.261182 1.05456,-0.3804883 0.395165,-0.1408778 0.795887,-0.2634845 1.194579,-0.3941935 0.350749,-0.1370842 0.719699,-0.216652 1.074436,-0.3402955 0.144543,-0.063441 0.300311,-0.094739 0.449102,-0.1444669 0.124253,-0.041526 0.244865,-0.09516 0.369466,-0.1367966 0.03971,-0.010076 0.07942,-0.020152 0.11913,-0.030228 0.03804,-0.00761 0.07645,-0.013569 0.114124,-0.022824 0.08735,-0.021459 0.168228,-0.071917 0.249697,-0.014058 0.06603,0.1163378 -0.02921,0.194793 -0.116638,0.2625055 -0.07609,-0.1250159 -0.622381,0.3954686 -0.903,0.4942823 -0.07888,0.027775 -0.162893,0.039542 -0.242958,0.064045 -0.164255,0.063411 -0.327498,0.1346848 -0.497929,0.1799659 -0.17891,0.062128 -0.360094,0.1171656 -0.530136,0.2014175 -0.210887,0.082078 -0.427001,0.1501655 -0.636182,0.2368128 -0.193586,0.062983 -0.376454,0.1529201 -0.569077,0.2182481 -0.179362,0.063929 -0.346324,0.1553616 -0.525147,0.220423 -0.15619,0.075872 -0.326361,0.1231273 -0.480404,0.2022869 -0.03893,0.027087 -0.08685,0.032182 -0.128853,0.051566 -0.07825,0.036109 -0.115719,0.080264 -0.204676,0.051091 -0.136,-0.1116947 0.04416,-0.2188758 0.131286,-0.2801621 0.418103,-0.2908764 0.855087,-0.4923195 1.317772,-0.6790355 0.240553,-0.1037411 0.489528,-0.1856277 0.73554,-0.2750962 0.271863,-0.107119 0.54235,-0.2181831 0.816396,-0.3195463 0.288999,-0.068969 0.576976,-0.1471158 0.868239,-0.2076182 0.233876,-0.03764 0.466591,-0.082207 0.692007,-0.1549651 0.307187,-0.1333638 -0.09396,0.038434 -0.618718,0.3576062 -0.0079,0.0048 0.10082,0.058232 -0.0602,0.08528 -0.180158,0.033064 -0.370134,0.092472 -0.537487,0.1674515 -0.267273,0.086467 -0.532949,0.1776884 -0.799074,0.2677222 -0.304486,0.090769 -0.601031,0.2037807 -0.901218,0.3067937 -0.24495,0.071401 -0.479857,0.1681315 -0.728244,0.2278617 -0.233317,0.027276 -0.449507,0.1208529 -0.671223,0.1918259 -0.159012,0.047411 -0.308219,0.1130866 -0.472998,0.1400055 -0.14413,0.03092 -0.27296,0.094467 -0.402529,0.1611625 -0.12121,0.060612 -0.245315,0.027755 -0.225774,-0.1240719 0.08268,-0.128065 0.221874,-0.2195952 0.347573,-0.3029572 0.406029,-0.2860127 0.853389,-0.499962 1.2946,-0.7221493 0.22304,-0.098063 0.454449,-0.1771509 0.684267,-0.2580537 0.247757,-0.089063 0.497559,-0.1757942 0.751661,-0.2447263 0.269945,-0.063124 0.547151,-0.077064 0.821082,-0.115345 0.107787,0.00436 0.361794,-0.08748 0.457655,-0.022427 0.0148,0.010043 0.02115,0.028844 0.03173,0.043266 0.0065,0.058087 0.02065,0.069716 -0.01798,0.1160282 -0.04594,0.055072 -0.129223,0.1062123 -0.190202,0.1414572 -0.261274,0.151011 -0.524429,0.2987425 -0.786643,0.4481137 -0.255112,0.1132625 -0.502557,0.2434758 -0.760173,0.3515597 -0.271461,0.1160098 -0.543286,0.2311742 -0.815989,0.34429 -0.263526,0.087848 -0.514646,0.2090617 -0.775102,0.3055781 -0.151363,0.072178 -0.315564,0.1196706 -0.463607,0.1989656 -0.03086,0.016529 -0.119571,0.072838 -0.08913,0.055551 0.205463,-0.1166746 0.409506,-0.2358342 0.614259,-0.3537513 -0.260462,0.1463614 -0.519973,0.2944289 -0.781386,0.4390843 -0.02722,0.015065 -0.111202,0.055691 -0.08435,0.039977 0.206405,-0.1207809 0.415249,-0.2373481 0.623266,-0.3553322 0.02337,-0.013254 -0.04596,0.027845 -0.06931,0.041134 -0.260791,0.1484459 -0.521635,0.2968025 -0.783097,0.4440647 -0.03019,0.017003 -0.06121,0.032476 -0.09182,0.048714 -0.21794,0.082484 -0.430902,0.1728681 -0.642256,0.2705781 -0.14565,0.05791 -0.04036,0.01178 -0.168403,0.07808 -0.02324,0.01204 -0.09317,0.04766 -0.07053,0.03453 0.212619,-0.123308 0.426496,-0.244442 0.640607,-0.365141 0.01849,-0.010424 -0.03529,0.023656 -0.05367,0.034272 -0.250761,0.144829 -0.502464,0.288019 -0.753696,0.432029 -0.124879,0.03693 -0.184887,0.132084 -0.300002,0.01926 -0.08226,-0.154091 -0.02472,-0.330902 0.02116,-0.4880217 0.07202,-0.213916 0.192377,-0.405368 0.325057,-0.5861288 C 12.454762,9.2292024 12.611907,9.1158123 12.7705,9.0038111 13.139876,8.7542403 13.543598,8.5612 13.923466,8.3288934 13.710267,8.450214 13.498818,8.5746613 13.28387,8.6928552 c -0.03759,0.02067 0.06514,-0.056627 0.102226,-0.078182 0.250464,-0.1455637 0.501971,-0.289363 0.754894,-0.4306112 0.03282,-0.01833 -1.944381,1.112231 0.100299,-0.05704 0.147062,-0.025978 0.178897,0.1652634 0.195557,0.2732656 0.0091,0.1769217 -0.04287,0.3412265 -0.117573,0.4989617 -0.113071,0.1767508 -0.223929,0.3547667 -0.337389,0.5313547 -0.118251,0.1674496 -0.219073,0.3454805 -0.314904,0.5263826 -0.09997,0.1881563 -0.244787,0.3457763 -0.38927,0.5002433 -0.100388,0.132536 -0.230404,0.233526 -0.355093,0.34108 -0.414293,0.31207 -0.803427,0.68973 -0.847365,0.17469 -0.01076,-0.139649 0.02459,-0.277086 0.06669,-0.409063 0.0666,-0.162313 0.125368,-0.327521 0.188348,-0.491303 0.07804,-0.2425162 0.20361,-0.4659804 0.333639,-0.6837636 0.167028,-0.2871858 0.367582,-0.5526333 0.549362,-0.8301324 0.131994,-0.2149892 0.306049,-0.3970522 0.480874,-0.5768864 0.256461,-0.2429545 0.812736,-0.7940105 0.89925,-0.3069148 0.01394,0.1476345 0.01621,0.2951376 -0.018,0.4397879 -0.0724,0.1881971 -0.197534,0.3457093 -0.32542,0.4986484 -0.100288,0.1201116 -0.215894,0.2252905 -0.32674,0.335229 -0.125588,0.1152223 -0.23454,0.2454483 -0.365236,0.3552041 -0.264887,0.2217955 -0.519026,0.3404231 -0.862892,0.5242128 -0.0147,0.00786 -0.03479,0.00172 -0.04968,-0.00578 -0.03968,-0.019958 -0.04734,-0.05842 -0.06259,-0.094915 -0.02289,-0.1485607 0.05819,-0.2866974 0.129045,-0.4114759 0.112928,-0.1862218 0.266328,-0.3380685 0.430487,-0.4786007 0.374404,-0.3120947 2.117026,-1.2656935 0.633361,-0.4131658 0.461268,-0.2852156 0.946853,-0.5215992 1.429409,-0.76577 0.233863,-0.087964 0.448479,-0.2155409 0.667792,-0.3333533 0.187105,-0.1023844 0.3968,-0.1430908 0.596487,-0.2100226 0.17026,-0.068283 0.338865,-0.1224377 0.521301,-0.1466063 0.181512,-0.020703 0.364337,-0.023302 0.546808,-0.024596 0.151788,0.00641 0.306365,-0.014784 0.456102,0.013848 0.12697,0.013542 0.229595,0.072453 0.335,0.1382939 0.100203,0.081976 0.156228,0.1939947 0.09271,0.3145438 -0.309809,0.3338333 -0.781367,0.5269732 -1.229342,0.588381 -0.267594,0.041275 -0.523576,0.1319812 -0.783653,0.2052263 -0.289972,0.1032905 -0.592699,0.1493304 -0.897967,0.1749043 -0.280589,0.043554 -0.55911,0.1018241 -0.83652,0.16286 -0.236598,0.066475 -0.477217,0.1179745 -0.718363,0.1644484 -0.19807,0.036621 -0.398085,0.044271 -0.593869,0.091318 -0.147692,0.037198 -0.298823,0.027663 -0.440363,0.086645 0.219655,-0.123431 0.43931,-0.2468619 0.658965,-0.3702929 -0.01769,-0.012342 -0.04003,-0.022766 -0.02333,-0.056859 0.0155,-0.031652 0.181758,-0.049813 0.203217,-0.055042 0.238603,-0.1001108 0.49572,-0.146919 0.736036,-0.2390749 0.223108,-0.082785 0.455885,-0.132563 0.682416,-0.2048141 0.239846,-0.069182 0.486996,-0.1070822 0.729398,-0.1645962 0.247574,-0.085635 0.505489,-0.1295895 0.762085,-0.1781355 0.287124,-0.037048 0.57293,-0.083105 0.860892,-0.1143362 0.09185,-0.00884 0.356305,-0.040777 0.409553,0.074113 0.009,0.019455 0.0092,0.041888 0.01379,0.062831 -0.0059,0.016601 -0.0085,0.034805 -0.0178,0.049802 -0.02572,0.041628 -0.09639,0.099941 -0.136573,0.1237764 -0.68475,0.4061684 -0.522288,0.3242055 -0.873483,0.495293 -0.240431,0.119987 -0.492592,0.2128449 -0.741776,0.3121461 -0.294616,0.088993 -0.56056,0.2455693 -0.85298,0.3394631 -0.278841,0.1223688 -0.57381,0.2004214 -0.858854,0.3078285 -0.266483,0.1089032 -0.536136,0.2103529 -0.804283,0.3159191 -0.245903,0.094296 -0.493435,0.1863572 -0.733914,0.2940008 -0.224677,0.091193 -0.450456,0.1791496 -0.677204,0.2651306 -0.209496,0.06712 -0.410502,0.152651 -0.61063,0.243098 -0.152165,0.08134 -0.304655,0.232138 -0.466924,0.100816 -0.0891,-0.122519 -0.08396,-0.274397 -0.06543,-0.417876 0.02733,-0.1620439 0.108051,-0.3007749 0.193525,-0.4378435 0.102481,-0.1305628 0.205847,-0.2597699 0.302847,-0.3946155 0.105898,-0.1588859 0.256606,-0.2764393 0.398316,-0.4011727 0.340447,-0.2743714 0.745797,-0.4769482 1.119189,-0.6920273 0.158293,-0.096662 0.258262,-0.1126728 0.363735,0.054726 0.06082,0.1360316 0.0299,0.2821388 -0.01717,0.4174204 -0.0813,0.1596432 -0.168629,0.315382 -0.244056,0.4779656 -0.07695,0.1485667 -0.154145,0.2971046 -0.241261,0.4400085 -0.07428,0.1298523 -0.157881,0.2522129 -0.248197,0.3712543 -0.08279,0.118345 -0.163321,0.239281 -0.235015,0.364738 -0.05784,0.117024 -0.135825,0.219616 -0.217054,0.320824 -0.325689,0.45726 0.04689,0.176547 -0.905788,0.57438 0.04126,-0.156293 0.201851,-0.268136 0.326055,-0.361145 0.488526,-0.287479 0.977713,-0.579773 1.483638,-0.83698 0.349325,-0.1941676 0.711558,-0.3629114 1.075043,-0.5284831 0.335159,-0.1692993 0.68133,-0.3144955 1.020866,-0.4743217 0.340872,-0.1644565 0.687016,-0.3169499 1.036982,-0.4610792 0.235969,-0.051534 0.494958,-0.2242479 0.737936,-0.2115106 0.140312,0.057765 0.157114,0.2018209 0.142692,0.3357455 -0.02811,0.1753356 -0.138003,0.3104425 -0.246111,0.4440281 -0.100097,0.1535423 -0.247314,0.2507322 -0.401616,0.3421981 -0.336841,0.2381229 -0.700344,0.4245435 -1.055213,0.6381019 -0.196453,0.118225 0.79581,-0.4558585 0.596207,-0.3430343 -0.262998,0.1486574 -0.524263,0.3003583 -0.786395,0.4505373 0.199337,-0.114126 0.398391,-0.2287473 0.59801,-0.3423785 0.03211,-0.018281 -0.0637,0.037467 -0.09549,0.056321 -0.06424,0.038107 -0.127482,0.077888 -0.192213,0.1151477 -0.263784,0.1518371 -0.528151,0.3026581 -0.792446,0.4536041 -0.03168,0.01809 -0.06364,0.03567 -0.09547,0.0535 -0.724762,0.443383 2.324673,-1.3732531 -0.284863,0.169004 -0.199376,0.117833 0.400721,-0.232306 0.601822,-0.347169 0.02377,-0.01358 -0.07113,0.04346 -0.176016,0.106608 -0.315073,0.110406 -0.573507,0.339709 -0.874015,0.482784 -0.16631,0.07918 -7.18e-4,-0.0092 -0.145876,0.07712 -0.02052,0.0122 -0.08333,0.04664 -0.06265,0.03471 0.211979,-0.122286 0.424372,-0.243855 0.636558,-0.365783 -0.114617,0.174777 -0.890112,0.730931 -0.891282,0.209775 0.01678,-0.161207 0.09678,-0.297915 0.188372,-0.427473 0.128418,-0.164714 0.277723,-0.313734 0.434389,-0.4515514 0.198174,-0.1825337 0.426419,-0.3213612 0.655695,-0.4600534 0.494869,-0.3006459 0.998782,-0.585799 1.519157,-0.839646 0.313812,-0.1715851 0.63681,-0.3289106 0.971851,-0.4545446 0.308103,-0.1436524 0.621675,-0.2742235 0.93964,-0.3948429 0.266782,-0.1103807 0.537244,-0.2100739 0.806222,-0.3147051 0.217302,-0.059635 0.424392,-0.1494899 0.639364,-0.2157855 0.161378,-0.054985 0.301784,-0.033473 0.421127,0.089607 0.106014,0.1408076 0.07451,0.281894 0.0099,0.4318066 -0.07221,0.1533222 -0.212642,0.252654 -0.342524,0.3544574 -0.393098,0.2907187 -0.821174,0.5372293 -1.258871,0.7536154 -0.237192,0.088284 -0.471842,0.1816604 -0.711661,0.2625341 -0.214203,0.087355 -0.431793,0.1588642 -0.654022,0.2222783 -0.197461,0.093743 -0.415138,0.1164896 -0.622012,0.1761637 -0.146013,0.048218 -0.297908,0.066228 -0.450577,0.075308 -0.168433,-0.00803 -0.256227,-0.1135428 -0.308176,-0.2626047 -0.0332,-0.1496243 0.02851,-0.2825558 0.10305,-0.4084149 0.08494,-0.1229612 0.152053,-0.2577178 0.245292,-0.3745349 0.301405,-0.3290175 0.755003,-0.5160299 1.127172,-0.7283811 0.17464,-0.1009426 0.356595,-0.190776 0.543591,-0.2658964 0.154323,-0.082854 0.32142,-0.1250003 0.493868,-0.1466299 0.173583,-0.016187 0.348242,-0.012757 0.52237,-0.012631 0.220065,0.00526 0.438435,0.041508 0.65809,0.058816 0.17007,0.00614 0.336967,0.011175 0.501194,0.058807 0.0099,0.0057 0.0237,0.00736 0.0296,0.017108 0.01432,0.023671 0.05083,0.062444 0.02804,0.078127 -0.57877,0.3982185 -0.529325,0.4093899 -0.947782,0.415603 -0.219732,0.028852 -0.434323,0.081043 -0.653992,0.1115149 -0.252985,0.018931 -0.492458,0.1044232 -0.742621,0.1419823 -0.266575,0.021751 -0.521415,0.1044702 -0.784078,0.1508149 -0.244037,0.042842 -0.476626,0.126092 -0.713958,0.1945647 -0.190499,0.023419 -0.356908,0.1339262 -0.541011,0.1747581 -0.03299,0.00527 -0.04481,0.016112 -0.06319,-0.029712 -0.0268,-0.066806 -0.0055,-0.1305188 0.05779,-0.1689557 0.252483,-0.1532603 0.511373,-0.2957066 0.767059,-0.4435599 0.209165,-0.094776 0.439224,-0.1107922 0.656152,-0.1801908 0.233743,-0.061658 0.467897,-0.1079648 0.698627,-0.1812848 0.205412,-0.035102 0.402463,-0.1034102 0.606643,-0.1436263 0.12818,-0.025301 0.252893,-0.018667 0.262319,0.1327952 -0.01696,0.026431 -0.02558,0.042946 -0.04923,0.065506 -0.233878,0.2231183 -0.820817,0.4868319 -0.937847,0.5521443 1.451287,-0.9059985 0.730046,-0.4095962 0.547414,-0.3074123 -0.365115,0.2042843 -0.679691,0.3940537 -1.04607,0.557806 -0.163747,0.094566 -0.34495,0.1687127 -0.527684,0.2189263 -0.160295,0.026689 -0.29093,0.1196483 -0.446849,0.1634128 -0.0649,0.032167 -0.138644,0.041943 -0.202914,0.075485 -0.01098,0.00573 -0.0404,0.028689 -0.03002,0.021923 0.717929,-0.4679148 0.437418,-0.3645161 0.731861,-0.470159 0.11633,-0.023129 0.214421,-0.08885 0.32327,-0.1325719 0.110019,-0.017718 0.192969,-0.09401 0.293655,-0.1330936 0.06088,-0.023633 0.119137,-0.036035 0.182306,-0.051813 0.0272,-0.01024 0.05384,-0.022152 0.08161,-0.030718 0.109545,-0.033785 0.08588,-0.012543 0.194481,-0.056386 0.0882,-0.035607 0.167846,-0.08093 0.258315,-0.112214 0.02999,-0.00815 0.0605,-0.014567 0.08996,-0.02446 0.185141,-0.062176 -0.03442,-0.00289 0.159306,-0.057201 0.08871,-0.024866 0.179413,-0.036804 0.268752,-0.059413 0.152024,-0.012835 0.160473,0.1149618 0.05145,0.1902496 -0.33854,0.2540163 -0.71294,0.460835 -1.116615,0.5823463 -0.167765,0.07122 -0.335603,0.1422008 -0.504633,0.2102476 -0.142321,0.046576 -0.266688,0.1342648 -0.420659,0.1332874 -0.150238,-0.051989 -0.138281,-0.1771079 -0.04621,-0.2787049 0.381251,-0.2919538 0.812727,-0.5128274 1.241702,-0.7270726 0.251037,-0.1063277 0.504941,-0.2083801 0.762098,-0.2991312 0.234828,-0.1115475 0.481866,-0.1905685 0.724873,-0.281464 0.150259,-0.04092 0.350324,-0.1594514 0.502846,-0.073487 0.07961,0.120124 0.0046,0.2114389 -0.07627,0.3020172 -0.287643,0.3469125 -0.596573,0.4521734 -1.032384,0.704542 1.210989,-0.7132947 0.572366,-0.3455564 0.315869,-0.1442419 -0.149875,0.138092 -0.314454,0.2551494 -0.488539,0.3601676 -0.424255,0.2770968 -0.846074,0.5151169 -1.31612,0.6864361 -0.16037,0.061446 -0.319532,0.1131442 -0.490174,0.1382178 -0.16607,0.00319 -0.246147,-0.1094302 -0.24369,-0.2647573 0.04404,-0.1645243 0.154456,-0.3071392 0.269718,-0.4297772 0.06551,-0.084655 0.187362,-0.1313907 0.234567,-0.2301234 -0.07788,0.00497 -0.175688,0.018291 -0.255916,0.039317 -0.188275,0.058545 -0.382074,0.092625 -0.573672,0.1382728 -0.224888,0.070299 -0.453342,0.1329233 -0.683618,0.1838299 -0.250792,0.031167 -0.493684,0.1086658 -0.730861,0.1937159 -0.237836,0.080708 -0.467647,0.1831234 -0.703857,0.2681227 -0.228847,0.075052 -0.460678,0.1382859 -0.677627,0.2443089 -0.212124,0.087771 -0.418211,0.1860557 -0.626203,0.2829409 -0.0641,0.03764 -0.136101,0.05729 -0.203052,0.08837 -0.02981,0.01384 -0.115539,0.06271 -0.08707,0.04628 1.117625,-0.6452255 0.709431,-0.4174588 0.475545,-0.2639521 -0.108867,0.063727 -0.185697,0.1586161 -0.26092,0.2570981 -0.0875,0.0952 -0.187595,0.178685 -0.285196,0.263519 -0.05631,0.05457 -0.04536,0.04159 -0.09643,0.100413 -0.005,0.0057 -0.0087,0.023 -0.01418,0.01777 -0.0519,-0.04943 0.06804,-0.07835 0.08463,-0.08515 0.138998,-0.09957 0.30361,-0.149627 0.453226,-0.227889 0.165216,-0.07643 0.324762,-0.165087 0.488984,-0.2441633 -1.472586,0.8791873 0.09403,-0.1177007 0.563669,-0.2999248 0.185541,-0.090668 0.368122,-0.1853411 0.565178,-0.2482251 0.168452,-0.058353 0.31993,-0.1592332 0.49114,-0.2079965 0.154607,-0.01128 0.208843,0.1229372 0.220529,0.2546418 -0.0086,0.178856 -0.09301,0.3373357 -0.182735,0.4876622 -0.157973,0.2320247 -0.371042,0.4103057 -0.593597,0.5767447 -0.268056,0.199619 -0.554755,0.371043 -0.83924,0.545789 -2.482965,1.42149 -0.209155,0.115993 -0.312247,0.176566 -0.980224,0.575938 -1.125095,0.642375 -0.26003,0.152863 0.04035,-0.02283 -0.07936,0.04793 -0.119202,0.07164 -0.04021,0.02393 -0.08063,0.0475 -0.120948,0.07124 -0.341027,0.205367 -0.345081,0.20876 -0.916891,0.532707 -0.108691,0.06158 -0.209597,0.101489 -0.326575,0.04944 -0.118812,-0.128277 -0.103545,-0.288819 -0.08437,-0.449199 0.02094,-0.198683 0.117344,-0.348313 0.25477,-0.486543 0.180045,-0.179238 0.355263,-0.363269 0.532519,-0.545262 0,0 0.746161,-0.310122 0.746161,-0.310122 l 0,0 c -0.177118,0.181013 -0.352415,0.363765 -0.527892,0.546363 -0.136464,0.123804 -0.248553,0.244556 -0.276285,0.434581 -0.0123,0.108323 -0.05826,0.26087 0.03013,0.348114 0.06714,0.0037 0.120094,-0.01556 0.181446,-0.0445 0.03379,-0.01594 0.13146,-0.07102 0.0993,-0.05199 -0.923627,0.546463 -0.712427,0.417855 -0.466181,0.266276 0.351629,-0.204132 0.704171,-0.409145 1.054025,-0.615158 0.182453,-0.107438 -0.733275,0.423813 -0.549861,0.318025 0.927251,-0.534813 1.173429,-0.681713 0.313934,-0.175606 0.283926,-0.173392 0.569408,-0.343722 0.839252,-0.53807 0.219519,-0.162035 0.433248,-0.327195 0.600877,-0.545872 0.08566,-0.139433 0.17149,-0.2784647 0.195213,-0.4438157 0.01094,-0.1019147 -0.02849,-0.1645378 -0.135386,-0.1261809 -0.164152,0.065604 -0.320277,0.1509166 -0.488679,0.2066188 -0.192459,0.071689 -0.37331,0.1689128 -0.560885,0.2520748 -0.101084,0.04702 -0.196287,0.100304 -0.293528,0.15472 -0.03193,0.01787 -0.127655,0.07161 -0.09605,0.05316 0.365177,-0.213115 1.456355,-0.8400686 -0.173409,0.09768 -0.162145,0.08347 -0.32609,0.163027 -0.489695,0.243527 -0.156246,0.06959 -0.306569,0.15067 -0.463453,0.217814 -0.209103,0.03704 -0.224425,-0.100647 -0.08241,-0.220785 0.09019,-0.09105 0.192749,-0.168994 0.287405,-0.254711 0.08737,-0.09092 0.14052,-0.21389 0.256227,-0.276124 0.08368,-0.0662 0.04345,-0.03918 0.139777,-0.09484 0.359555,-0.2077634 0.690078,-0.423086 1.067302,-0.5811983 0.206321,-0.09928 0.417228,-0.1866238 0.625633,-0.2813248 0.221193,-0.095497 0.453443,-0.1589528 0.68049,-0.2388793 0.234216,-0.09015 0.466431,-0.1860019 0.704327,-0.2662345 0.241121,-0.081151 0.486033,-0.1504549 0.738113,-0.1882619 0.229662,-0.055054 0.456986,-0.1195773 0.684207,-0.1838136 0.1944,-0.041408 0.385264,-0.093298 0.578463,-0.139184 0.123871,-0.017191 0.267014,-0.050374 0.336272,0.080604 0.02229,0.1502926 -0.121536,0.1983688 -0.211302,0.2929858 -0.123285,0.1006923 -0.215246,0.2381771 -0.29125,0.3769862 -0.03445,0.1218594 0.05119,0.1547367 0.162264,0.1367668 0.165108,-0.032786 0.320629,-0.092028 0.478725,-0.148776 0.100311,-0.038812 0.20231,-0.076217 0.299656,-0.122146 0.254867,-0.1202507 0.716559,-0.4391182 -0.378533,0.2283347 0.171039,-0.1047346 0.342918,-0.2052497 0.489165,-0.3451162 0.30084,-0.2948809 0.754633,-0.4217729 1.073384,-0.6738432 -1.391185,0.8166043 -0.676586,0.4225013 -0.498489,0.2847345 0.05825,-0.045061 0.08577,-0.1163042 0.143214,-0.1621359 0.04919,-0.05272 0.11256,-0.1069427 0.149405,-0.1604863 -0.160058,-0.00812 -0.311226,0.066868 -0.46012,0.1140046 -0.244222,0.086953 -0.484968,0.1807334 -0.7241,0.2807251 -0.254837,0.095386 -0.510732,0.1904899 -0.756699,0.3071545 -0.259942,0.1329182 -0.751413,0.4248107 0.37661,-0.2324422 0.05533,-0.03224 -0.109421,0.066626 -0.162856,0.1019214 -0.02244,0.01482 -0.04538,0.028853 -0.06808,0.043279 -0.03213,0.023367 -0.174634,0.1059764 -0.05328,0.1009303 0.141074,-0.030703 0.266472,-0.1044306 0.402887,-0.1499647 0.168466,-0.070744 0.337183,-0.1412497 0.508169,-0.2056614 0.08005,-0.028824 0.161773,-0.056297 0.239166,-0.091919 0.02321,-0.01068 0.09024,-0.047863 0.06823,-0.034892 -0.515492,0.3038181 -0.863979,0.4949962 -0.593592,0.3463051 0.08287,-0.069417 0.198949,-0.013937 0.06268,-3.542e-4 -0.174277,0.038643 -0.344557,0.086545 -0.511843,0.1495699 -0.176859,0.07303 -0.352432,0.1461168 -0.538545,0.1936842 -0.163031,0.051894 -0.309536,0.1385444 -0.470928,0.1952647 -0.110578,0.053009 -0.224702,0.1105399 -0.350791,0.102452 -0.378598,-0.1339406 0.574419,-0.5346593 0.812214,-0.6027727 0.148939,-0.054082 0.286966,-0.1353394 0.44563,-0.1615003 0.179152,-0.062293 0.354842,-0.1351329 0.521255,-0.2264944 0.118714,-0.053855 0.05677,-0.025346 0.170163,-0.078325 0.02894,-0.013521 0.114107,-0.057172 0.08683,-0.040544 -0.200529,0.1222537 -0.40513,0.2377033 -0.607027,0.3576842 -0.02602,0.015463 0.05291,-0.02941 0.07937,-0.044115 0.256901,-0.1485937 0.513802,-0.2971873 0.770702,-0.445781 -1.177131,0.6896618 -0.637685,0.4053177 -0.402585,0.2193891 0.01206,0.00517 0.04953,0.016269 0.03649,0.014802 -0.06617,-0.00744 -0.130835,-0.00476 -0.195978,0.01355 -0.200466,0.045804 -0.399043,0.1002333 -0.599166,0.1472691 -0.230864,0.069938 -0.468205,0.1097385 -0.698945,0.1800576 -0.218691,0.059063 -0.448103,0.086058 -0.65043,0.194997 0.208792,-0.1238358 0.417636,-0.2475835 0.626375,-0.3715074 0.0169,-0.010032 -0.03571,0.017303 -0.05085,0.029832 -0.0113,0.00935 -0.01243,0.034417 -0.02709,0.034659 -0.0079,1.306e-4 -0.09339,-0.064232 -0.0265,-0.059142 0.176298,-0.063482 0.351402,-0.130516 0.53501,-0.1708496 0.237379,-0.070908 0.473404,-0.1457911 0.718345,-0.1873517 0.261396,-0.050064 0.517826,-0.1253746 0.783916,-0.1491128 0.24852,-0.046164 0.491277,-0.1221119 0.744501,-0.1413629 0.221503,-0.034537 0.43944,-0.092151 0.663736,-0.1067572 0.423911,-0.017229 0.299427,-0.1825398 -0.469827,0.3796759 -0.04504,0.032918 0.09578,0.07561 0.02801,0.053223 -0.15976,-0.039995 -0.323738,-0.036927 -0.487017,-0.050766 -0.21818,-0.019627 -0.43572,-0.054877 -0.655208,-0.052293 -0.172487,7.286e-4 -0.345907,-4.772e-4 -0.517074,0.023777 -0.168009,0.030096 -0.326955,0.085731 -0.479874,0.1620386 -0.18318,0.083835 -0.365866,0.1682165 -0.539408,0.2711193 1.317457,-0.7658209 0.582565,-0.3612587 0.383995,-0.2201383 -0.04909,0.034888 -0.08569,0.079736 -0.12581,0.1237356 -0.108114,0.102652 -0.167986,0.2399063 -0.248932,0.3636866 -0.078,0.098179 -0.141471,0.21173 -0.13556,0.3408388 0.03873,0.1262037 0.111724,0.1831749 0.248993,0.1718663 0.149522,-0.013998 0.296203,-0.041986 0.440194,-0.085341 0.209612,-0.047295 0.41669,-0.099231 0.618042,-0.1760493 0.220852,-0.063953 0.43485,-0.1461552 0.650663,-0.2252513 0.237558,-0.084984 0.475468,-0.1701844 0.70627,-0.2723356 0.294434,-0.1540073 0.185139,-0.098721 -0.502878,0.2985505 -0.03265,0.018854 0.06432,-0.039363 0.09669,-0.058692 0.09563,-0.057096 0.191019,-0.1142143 0.276977,-0.1857528 0.127137,-0.092634 0.262927,-0.1892277 0.356613,-0.3162196 0.05453,-0.1157995 0.126159,-0.2241358 0.03503,-0.34224 -0.110068,-0.095371 -0.239844,-0.063085 -0.367847,-0.019698 -0.211193,0.071347 -0.420651,0.1478292 -0.632608,0.2170324 -0.267164,0.1068564 -0.539142,0.2004322 -0.804357,0.3122687 -0.316212,0.1226211 -0.627182,0.2567946 -0.937437,0.3934599 -0.332025,0.1328188 -0.653101,0.2912914 -0.967977,0.460626 -0.243912,0.1220209 -0.06564,0.032145 -0.300446,0.152267 -0.04811,0.02461 -0.190552,0.1017622 -0.144447,0.07358 1.084649,-0.6630182 0.552778,-0.3149904 0.306214,-0.1788394 -0.226479,0.1383856 -0.461472,0.2630686 -0.655003,0.4482077 -0.165002,0.121838 -0.303849,0.2801218 -0.440809,0.4319981 -0.09092,0.116332 -0.171676,0.234635 -0.204642,0.381024 -5.38e-4,0.0061 -0.01477,0.07828 -0.0028,0.08755 0.0133,0.01026 0.06377,-0.01891 0.0493,-0.01039 -0.214889,0.12645 -0.43096,0.250879 -0.646441,0.376319 0.252934,-0.147097 0.505718,-0.294453 0.758802,-0.44129 0.06803,-0.03947 0.138077,-0.07319 0.209168,-0.106711 0.02835,-0.01337 0.111793,-0.05647 0.08502,-0.04018 -0.199836,0.121599 -0.403053,0.237551 -0.60458,0.356326 0.323552,-0.183932 0.636199,-0.376404 0.963113,-0.561618 0.20127,-0.114031 -0.797701,0.468849 -0.599932,0.348849 0.519698,-0.31534 0.557005,-0.33488 0.885454,-0.5167461 0.286399,-0.1575527 0.194099,-0.1077947 -0.499747,0.2941671 -0.06455,0.0374 0.127151,-0.07806 0.19133,-0.116087 0.293969,-0.1741762 0.617686,-0.2971887 0.886822,-0.5141447 -0.200828,0.1167375 -0.80406,0.4656537 -0.602484,0.3502127 0.264264,-0.1513426 0.524688,-0.3094014 0.79055,-0.4579178 0.199003,-0.111167 -0.390801,0.2349257 -0.589938,0.3458515 -0.03185,0.017743 0.05821,-0.043918 0.08732,-0.065877 0.03068,-0.019365 0.06214,-0.037557 0.09205,-0.058096 0.02671,-0.018339 0.05177,-0.03896 0.07766,-0.058439 0.148855,-0.08805 0.315542,-0.1634721 0.41041,-0.3153674 0.103686,-0.1232666 0.219824,-0.2421453 0.263108,-0.4019529 0.01279,-0.07753 0.04382,-0.2069944 -0.06918,-0.2148 -0.245414,0.032576 -0.473657,0.1592326 -0.709774,0.2269752 -0.347973,0.1460402 -0.693068,0.2982431 -1.033001,0.4622316 -0.340754,0.1572317 -0.683859,0.3092114 -1.021156,0.4739364 -0.363203,0.1677865 -0.724601,0.3392015 -1.074896,0.5329205 -0.149879,0.07776 -0.297056,0.158594 -0.443987,0.241719 -0.04295,0.0243 -0.171736,0.09728 -0.129295,0.0721 0.483379,-0.286762 0.792728,-0.457326 0.470409,-0.278513 -0.0537,0.03907 -0.111744,0.07242 -0.162544,0.115187 -0.06487,0.05461 -0.111561,0.130148 -0.185502,0.174908 -1.728161,0.871697 -0.818048,0.53398 -0.681077,0.306782 0.03756,-0.0623 0.0592,-0.132763 0.104182,-0.190717 0.08057,-0.09865 0.162745,-0.192953 0.22365,-0.305566 0.06269,-0.13404 0.155704,-0.250523 0.22984,-0.378434 0.09125,-0.116785 0.18025,-0.2325066 0.251841,-0.3626985 0.08499,-0.1428265 0.169397,-0.2853213 0.246112,-0.4331513 0.07707,-0.1605529 0.151289,-0.3218809 0.244238,-0.4743497 0.05243,-0.1025487 0.08851,-0.2333205 0.05145,-0.3460033 -0.07465,-0.1128705 -0.203991,6.187e-4 -0.291967,0.044102 1.236377,-0.7215556 0.530096,-0.3239189 0.269837,-0.1241833 -0.14358,0.1166266 -0.294705,0.2343533 -0.404084,0.3844187 -0.103712,0.1281565 -0.1881,0.2719854 -0.304827,0.390231 -0.09034,0.1241332 -0.167596,0.255528 -0.208231,0.404927 -0.0189,0.1077069 -0.04308,0.2370537 0.02204,0.3341033 0.141123,0.04543 0.290113,-0.1236251 0.414408,-0.1625774 0.199904,-0.090321 0.405737,-0.1646963 0.612423,-0.2380105 0.226072,-0.085234 0.45021,-0.1752085 0.67361,-0.2672219 0.242866,-0.1020144 0.488116,-0.1986618 0.734856,-0.2908752 0.268501,-0.1036082 0.535613,-0.210365 0.803916,-0.3141476 0.285469,-0.105512 0.579605,-0.1854999 0.85962,-0.3057186 0.287922,-0.1053907 0.559659,-0.2505529 0.852589,-0.3437071 0.250464,-0.097442 0.500222,-0.1979067 0.739821,-0.3202251 0.316743,-0.1661561 0.0747,-0.041065 -0.519389,0.3089908 -0.02027,0.011941 0.04299,-0.019744 0.06221,-0.033306 0.0289,-0.020397 0.0461,-0.056003 0.07725,-0.072768 0.01077,-0.0058 0.02413,-0.00402 0.03619,-0.00603 0.0082,0.00228 0.01612,0.00785 0.02455,0.00683 0.0046,-5.59e-4 -0.0068,-0.00666 -0.01112,-0.00846 -0.01472,-0.00618 -0.02978,-0.011998 -0.04541,-0.015276 -0.09969,-0.020908 -0.201525,-0.00677 -0.301462,0.0034 -0.28658,0.032684 -0.572042,0.075961 -0.857067,0.1196109 -0.256301,0.05085 -0.511805,0.1028325 -0.761581,0.1807748 -0.243394,0.051746 -0.488313,0.098425 -0.726805,0.1705867 -0.22674,0.067671 -0.457617,0.1220017 -0.679129,0.2062507 -0.247543,0.079492 -0.497634,0.1514432 -0.744355,0.2336073 -0.05373,0.01124 -0.181026,0.05638 -0.23801,0.021619 -0.259666,-0.1584048 0.264256,-1.3565313 0.689262,-0.5311725 0.146794,-0.03692 0.299013,-0.041701 0.445792,-0.080146 0.195372,-0.038517 0.395792,-0.04273 0.590387,-0.087248 0.239571,-0.051562 0.479778,-0.099675 0.716338,-0.1642273 0.27851,-0.059856 0.558264,-0.1192374 0.841071,-0.1539815 0.30259,-0.030733 0.60008,-0.087159 0.888467,-0.1863991 0.262474,-0.075412 0.522429,-0.1636443 0.793951,-0.2011288 0.102423,-0.019031 0.202546,-0.039819 0.300579,-0.076174 0.03162,-0.011724 0.121893,-0.056987 0.09327,-0.039154 -0.51237,0.3192626 -0.844216,0.4707468 -0.563662,0.3408268 0.01068,-0.011315 0.02032,-0.023723 0.03206,-0.033944 0.0087,-0.00755 0.02411,-0.00852 0.02877,-0.019029 0.02345,-0.052906 -0.05808,-0.1195631 -0.09063,-0.1449262 -0.09725,-0.060546 -0.199395,-0.099422 -0.314604,-0.1106666 -0.148769,-0.011859 -0.29852,-0.00272 -0.447628,-0.00514 -0.179733,0.00223 -0.360083,0.00604 -0.538107,0.03333 -0.177604,0.033815 -0.343145,0.09866 -0.514132,0.1557577 -0.200563,0.058121 -0.401293,0.1185793 -0.584852,0.2208911 -0.218023,0.1192355 -0.438194,0.2340093 -0.667595,0.3301385 -0.297913,0.1498528 -1.294096,0.6669597 -0.04274,-0.030481 -0.265164,0.1537811 -0.530582,0.3071239 -0.795491,0.4613432 -0.194669,0.1133285 0.390353,-0.2249117 0.584771,-0.3386704 0.149561,-0.087512 -0.580443,0.3525425 -0.427373,0.2775903 -0.161156,0.1371229 -0.32147,0.2726105 -0.437373,0.4532078 -0.06678,0.1038197 -0.141906,0.2226736 -0.153759,0.3474157 -0.0085,0.016841 0.0065,-0.019806 0.03055,-0.017048 -0.216028,0.1269075 -0.432055,0.2538149 -0.648083,0.3807223 -0.04283,0.024686 0.173092,-0.1121613 0.116581,-0.091654 0.140709,-0.09842 0.246379,-0.2287517 0.368717,-0.3472813 0.114609,-0.1047637 0.22158,-0.2170677 0.331401,-0.3267815 0.122425,-0.1491617 0.252578,-0.2917998 0.337625,-0.4675248 0.04649,-0.1324681 0.04071,-0.2682446 0.03087,-0.4071117 -0.0017,-0.015104 -0.0029,-0.030265 -0.005,-0.045313 -8.76e-4,-0.00624 -0.01139,-0.014893 -0.0059,-0.017964 1.304313,-0.7279479 0.80685,-0.4946347 0.58508,-0.3244293 -0.171727,0.1816838 -0.359397,0.3503194 -0.492722,0.5648003 -0.175719,0.2809142 -0.386621,0.5393583 -0.550563,0.8282296 -0.128915,0.2125142 -0.258085,0.4303953 -0.334386,0.6680825 -0.06055,0.1629478 -0.116283,0.3277357 -0.18633,0.4864527 -0.0415,0.122252 -0.0844,0.249473 -0.07982,0.379913 0.0025,0.04109 0.0028,0.06398 0.0087,0.103467 0.0013,0.009 0.0029,0.01808 0.0056,0.02678 7.51e-4,0.0024 0.05206,-0.03762 0.01342,-0.0154 -0.222638,0.128008 -0.442906,0.260095 -0.664359,0.390142 0.133633,-0.09419 0.262247,-0.204197 0.364878,-0.331927 0.143532,-0.149433 0.288394,-0.300369 0.397497,-0.477742 0.08811,-0.18618 0.194248,-0.3656661 0.313693,-0.5336545 0.105675,-0.1791015 0.219638,-0.3540505 0.339552,-0.5237589 0.02919,-0.057547 0.06476,-0.1123167 0.0873,-0.1727777 0.03322,-0.089099 0.03043,-0.1885631 0.04798,-0.2809304 -0.0035,-0.027926 -0.0059,-0.1605029 -0.05034,-0.1688882 -0.02166,-0.00409 -0.03989,0.037337 -0.06036,0.026981 1.675745,-0.9697606 -0.02945,0.018166 -0.101427,0.054811 -0.221632,0.1128401 0.429521,-0.2508516 0.644236,-0.3763554 0.03683,-0.021529 -0.06925,0.049988 -0.105614,0.072293 -0.249083,0.1527651 -0.500902,0.3010241 -0.751352,0.4515362 -0.284677,0.1506993 -0.06138,0.033733 0.548844,-0.3241972 0.02631,-0.015434 -0.05366,0.029087 -0.07968,0.045001 -0.07718,0.047196 -0.150644,0.1008612 -0.232178,0.1409249 -0.150443,0.1192572 -0.324911,0.2073718 -0.442472,0.3657271 -0.130431,0.1748754 -0.258135,0.3537527 -0.333779,0.5606868 -0.04116,0.1196403 -0.09857,0.2710702 -0.06291,0.3972079 0.07889,0.0202 0.168711,-0.078281 0.243524,-0.093234 -1.458166,0.8484225 -0.09162,0.015222 0.403961,-0.207402 0.210865,-0.097743 0.429738,-0.1748496 0.639933,-0.2739267 0.30172,-0.1568987 0.129707,-0.069369 -0.518292,0.3083229 -0.02339,0.013635 0.04655,-0.027669 0.07002,-0.041182 0.257324,-0.1481928 0.513791,-0.297893 0.772342,-0.4439338 0.02711,-0.015314 0.111068,-0.056098 0.08441,-0.039999 -0.202937,0.1225752 -0.40908,0.2397618 -0.613621,0.3596427 0.440503,-0.2549444 0.854397,-0.523176 1.333328,-0.6913818 C 15.361753,8.801838 15.616068,8.6897565 15.877385,8.5955694 16.148206,8.4809 16.421111,8.3714151 16.690162,8.2526216 16.946686,8.1381504 17.198475,8.01333 17.451865,7.8921148 c -0.201993,0.1177756 -0.404623,0.2344643 -0.605979,0.353327 -0.02464,0.014546 0.05176,-0.02478 0.07577,-0.040339 0.04628,-0.029983 0.09698,-0.087177 0.155682,-0.096431 0.0102,-0.00161 0.02018,0.00437 0.03027,0.00656 0.0096,0.018063 -0.03524,-1.559e-4 -0.105051,0.00461 -0.109244,0.00746 -0.217566,0.026363 -0.326284,0.038498 -0.272073,0.035622 -0.548212,0.050002 -0.813664,0.1244203 -0.251861,0.076252 -0.502552,0.1569145 -0.749062,0.2491974 -0.228796,0.082777 -0.460838,0.1595881 -0.67975,0.2666273 -0.105374,0.051471 -0.210436,0.102757 -0.31389,0.1580262 -0.03314,0.017704 -0.131497,0.072707 -0.0992,0.05351 0.705244,-0.4191839 0.776034,-0.4689208 0.508683,-0.2904939 -0.05329,0.033474 -0.111598,0.059724 -0.160711,0.099073 -0.02035,0.016303 -0.03297,0.040833 -0.05299,0.057532 -0.04435,0.036982 -0.102244,0.061303 -0.145205,0.1012602 -0.01257,0.00721 -0.04075,0.020327 -0.04306,0.00602 -3.33e-4,-0.00207 0.01221,0.00602 0.05085,-0.00506 0.03927,-0.01126 0.07249,-0.029441 0.109307,-0.047093 0.131839,-0.066227 0.271444,-0.1140774 0.41623,-0.1433172 0.158068,-0.036793 0.306461,-0.1024116 0.463058,-0.1447322 0.221932,-0.0737 0.442475,-0.1517859 0.674679,-0.1876903 0.243915,-0.065371 0.478477,-0.1589999 0.720496,-0.2308681 0.298914,-0.1067285 0.599249,-0.2081633 0.901257,-0.3059331 0.266694,-0.091295 0.535179,-0.1776461 0.79996,-0.2741622 0.180326,-0.065367 0.363051,-0.1329474 0.554598,-0.1550635 0.07523,-0.00805 0.118218,-0.011541 0.160715,0.063324 0.0077,0.013507 0.02342,0.037067 0.01033,0.045434 -0.236823,0.1514303 -0.486892,0.2811472 -0.733126,0.4167391 -0.01766,0.00972 -0.03835,0.012427 -0.05752,0.018641 -0.226099,0.065675 -0.459731,0.1001057 -0.690511,0.145196 -0.288627,0.06496 -0.578281,0.1318625 -0.86124,0.2173896 -0.272708,0.1056221 -0.544908,0.2124683 -0.817436,0.3185026 -0.247569,0.087212 -0.49392,0.177884 -0.736162,0.2791319 -0.31948,0.1250108 -1.200875,0.5809478 0.0798,-0.1156111 -0.02249,0.011569 -0.04633,0.02084 -0.06748,0.034708 -0.03125,0.020483 -0.121346,0.1205325 -0.1647,0.066614 -0.0018,-0.00227 0.0054,-0.00219 0.0081,-0.00328 0.105239,-0.033353 0.200202,-0.097056 0.304464,-0.1338991 0.160752,-0.065073 0.320741,-0.1318503 0.481546,-0.1968465 0.175883,-0.071894 0.345791,-0.1579753 0.526271,-0.2187338 0.189194,-0.07125 0.374654,-0.1521055 0.565492,-0.2191745 0.211375,-0.081178 0.427083,-0.1513918 0.634937,-0.2413152 0.175297,-0.075316 0.35669,-0.1353293 0.53835,-0.1933772 0.167361,-0.05659 0.331711,-0.1218415 0.498743,-0.1793552 0.342737,-0.092754 0.927459,-0.4221816 -0.260234,0.2324938 0.04912,-0.022076 0.09577,-0.046964 0.134093,-0.085966 0.0083,-0.0084 0.0101,-0.022868 0.02012,-0.029063 0.01607,-0.00993 0.02938,0.00512 0.03932,0.012956 -0.138001,0.054212 -0.300621,0.048176 -0.437489,0.1097853 -0.270602,0.094548 -0.541145,0.1876471 -0.81359,0.2768877 -0.356668,0.1155907 -0.721199,0.20623 -1.072833,0.3381212 -0.398686,0.1292658 -0.798754,0.2540741 -1.193604,0.3946369 -0.354466,0.1210751 -0.709132,0.2443371 -1.053798,0.391103 -0.130574,0.061886 -0.261922,0.1228916 -0.390757,0.1883683 -0.03373,0.017142 -0.132789,0.07254 -0.100202,0.053315 0.580914,-0.3427168 0.828127,-0.4579542 0.533104,-0.3173972 -0.02852,0.019899 -0.05251,0.047973 -0.0849,0.060639 -0.05226,0.020435 -0.02676,-0.045623 0.02716,-0.03541 0.148962,-0.056229 0.303067,-0.098565 0.445227,-0.1722027 0.161167,-0.071055 0.320546,-0.1456685 0.486362,-0.205713 0.225296,-0.08777 0.454835,-0.1662075 0.673779,-0.2691684 0.220705,-0.1058789 0.449754,-0.1910637 0.670668,-0.2964637 0.287154,-0.1374553 0.674797,-0.3757625 -0.343132,0.2279259 -0.05901,0.034994 0.108852,-0.057686 0.191913,-0.1139575 0.02184,-0.014799 0.04235,-0.031477 0.06353,-0.047216 0.06906,-0.1137786 0.08945,-0.1991488 -0.01101,-0.3013483 -0.122606,-0.08827 -0.260146,-0.1176392 -0.409664,-0.128858 -0.143244,-0.00923 -0.287783,-0.00247 -0.429991,0.016989 -0.145471,0.028389 -0.278168,0.085624 -0.410833,0.1509318 -0.181284,0.076293 -0.359229,0.160724 -0.538441,0.2417189 -0.0315,0.015487 -0.12462,0.064506 -0.09451,0.046461 0.195724,-0.1172902 0.790074,-0.456949 0.591611,-0.3443557 -0.267592,0.1518117 -0.532339,0.3085862 -0.799006,0.4620163 -0.03575,0.020567 -0.143683,0.081022 -0.108221,0.059967 0.399584,-0.2372367 1.384567,-0.8061131 -0.238137,0.1340925 -0.252105,0.1392479 -0.759379,0.4402851 0.353873,-0.2179834 0.160373,-0.094829 -0.462145,0.2480237 -0.293954,0.1950733 -0.185616,0.1305911 -0.340579,0.2909512 -0.509282,0.4411744 -0.133543,0.1307808 -0.256793,0.2686562 -0.344974,0.4345064 -0.0078,0.041485 -0.01097,0.057186 0.04116,0.045593 0.01885,-0.00419 0.07136,-0.028548 0.0549,-0.018459 -0.178006,0.1091015 -0.894218,0.5258219 -0.539817,0.3176511 0.151061,-0.1200271 0.317172,-0.2205261 0.459577,-0.3518874 0.126946,-0.1032432 0.256993,-0.2052885 0.368922,-0.3243887 0.07343,-0.1185878 0.141823,-0.2411446 0.193164,-0.370352 0.04347,-0.1019307 0.08114,-0.209528 0.08464,-0.3208178 7.63e-4,-0.021476 0.009,-0.062468 -0.02505,-0.066308 -0.0098,-0.00111 -0.03731,0.011716 -0.02887,0.00659 0.994354,-0.6039121 0.836555,-0.5035644 0.59523,-0.3485389 -0.113154,0.099863 -0.217209,0.2103254 -0.336902,0.3028291 -0.09877,0.091124 -0.217617,0.1562122 -0.307497,0.2571412 -0.09875,0.1082789 -0.222827,0.1907375 -0.316838,0.3040301 -0.09653,0.1101885 -0.198311,0.2159857 -0.305049,0.3160045 -0.124717,0.1274966 -0.261551,0.2465746 -0.422418,0.3263269 -0.336702,0.2346326 -0.442191,0.2926158 -0.939662,0.5708897 -0.01627,0.0091 -0.03556,0.01377 -0.0542,0.01382 -0.01972,5.4e-5 -0.0384,-0.009 -0.05759,-0.01351 -0.0151,-0.01454 -0.03378,-0.0261 -0.04529,-0.04361 -0.0512,-0.0779 0.03148,-0.2012989 0.05754,-0.2757054 0.03252,-0.056114 0.04966,-0.1167231 0.08287,-0.1724211 0.06916,-0.1159968 0.0019,0.00806 0.07606,-0.099689 0.01211,-0.017591 0.02069,-0.037363 0.03104,-0.056045 0.05856,-0.1230737 0.155573,-0.2217143 0.214193,-0.3454574 0.09247,-0.1294822 0.204718,-0.2405987 0.322011,-0.3472261 0.120204,-0.094098 0.236951,-0.1916878 0.372581,-0.2638418 0.251781,-0.1483491 0.508746,-0.2882323 0.755343,-0.4450473 0.205663,-0.1307839 -0.843115,0.4894693 -0.632454,0.3669 0.275081,-0.1600505 0.617851,-0.4073164 0.95224,-0.5260265 0.157927,-0.049297 0.315139,-0.1037595 0.461766,-0.1812621 0.223755,-0.1082723 0.443827,-0.2229059 0.662281,-0.3415807 0,0 -0.634112,0.5130268 -0.634112,0.5130268 z"
       inkscape:connector-curvature="0"
       transform="translate(44.428235,969.35954)" />
    <g
       id="g3792"
       transform="matrix(0.03039362,-0.06485784,0.12188963,0.02076945,21.375236,995.84572)">
      <path
         transform="matrix(0.8531967,0.5215893,-0.5215893,0.8531967,150.34427,-139.54284)"
         d="m 413.95744,208.49593 c 0,4.51228 -25.25713,8.17021 -56.41337,8.17021 -31.15625,0 -56.41337,-3.65793 -56.41337,-8.17021 0,-4.51229 25.25712,-8.17022 56.41337,-8.17022 31.15624,0 56.41337,3.65793 56.41337,8.17022 z"
         sodipodi:ry="8.1702127"
         sodipodi:rx="56.413372"
         sodipodi:cy="208.49593"
         sodipodi:cx="357.54407"
         id="path3784"
         style="fill:#ac9d93;fill-opacity:1;stroke:#000000;stroke-width:1.89999998;stroke-miterlimit:4;stroke-opacity:0;stroke-dasharray:none"
         sodipodi:type="arc" />
      <path
         inkscape:connector-curvature="0"
         id="path3786"
         d="m 316.69301,200.32571 c 0,0 31.12462,-43.57447 57.58055,-21.78723 26.45592,21.78723 28.01215,22.56535 28.01215,22.56535 0,0 14.7842,5.44681 -3.11246,25.67781 -17.89665,20.231 -17.11854,20.231 -17.11854,20.231 z"
         style="fill:#ac9d93;stroke:#000000;stroke-width:1px;stroke-linecap:butt;stroke-linejoin:miter;stroke-opacity:0" />
      <path
         inkscape:connector-curvature="0"
         id="path3788"
         d="m 380.49848,200.32571 c 21.78723,-9.33739 66.91793,-31.90274 54.46809,-14.7842 -12.44985,17.11854 -56.80244,28.79028 -56.80244,28.79028 z"
         style="fill:#a02c2c;stroke:#000000;stroke-width:1px;stroke-linecap:butt;stroke-linejoin:miter;stroke-opacity:0" />
    </g>
  </g>
</svg>
